<?xml version="1.0" encoding="UTF-8" standalone="no"?>
<svg width="564px" height="494px" viewBox="0 0 564 494" version="1.1" xmlns="http://www.w3.org/2000/svg" xmlns:xlink="http://www.w3.org/1999/xlink">
    <!-- Generator: sketchtool 41 (35326) - http://www.bohemiancoding.com/sketch -->
    <title>2F17449A-562C-4DDF-8972-E50F9F7E8C49</title>
    <desc>Created with sketchtool.</desc>
    <defs></defs>
    <g id="Page-1" stroke="none" stroke-width="1" fill="none" fill-rule="evenodd" opacity="0.654850746">
        <g id="Artboard-Copy-16" transform="translate(-87.000000, -1543.000000)">
            <g id="Group-16" transform="translate(87.000000, 1543.000000)">
                <g id="Group-10" opacity="0.180387127" transform="translate(96.125217, 205.833333)" fill="#FF0755">
                    <path d="M121.36618,60.5766889 C115.619546,60.5766889 110.943616,65.2574035 110.943616,71.0106328 L110.943616,94.9264941 C110.943616,96.3803633 112.120104,97.55877 113.572487,97.55877 L129.160587,97.55877 C130.612255,97.55877 131.789457,96.3810788 131.789457,94.9264941 L131.789457,71.0106328 C131.789457,65.258119 127.114242,60.5766889 121.36618,60.5766889 Z M126.531717,92.2949337 L116.201357,92.2949337 L116.201357,71.0106328 C116.201357,68.1608489 118.517879,65.8405252 121.36618,65.8405252 C124.21448,65.8405252 126.531717,68.1601334 126.531717,71.0106328 L126.531717,92.2949337 Z" id="Shape"></path>
                    <path d="M289.586004,60.5766889 C283.838656,60.5766889 279.163441,65.2574035 279.163441,71.0106328 L279.163441,94.9264941 C279.163441,96.3803633 280.339929,97.55877 281.792312,97.55877 L297.380412,97.55877 C298.83208,97.55877 300.010712,96.3810788 300.010712,94.9264941 L300.010712,71.0106328 C300.008567,65.258119 295.333352,60.5766889 289.586004,60.5766889 Z M294.751541,92.2949337 L284.421182,92.2949337 L284.421182,71.0106328 C284.421182,68.1608489 286.739848,65.8405252 289.588149,65.8405252 C292.436449,65.8405252 294.753686,68.1601334 294.753686,71.0106328 L294.751541,92.2949337 L294.751541,92.2949337 Z" id="Shape"></path>
                    <path d="M408.324743,162.917057 L381.512839,162.917057 L381.512839,110.219309 C390.825387,112.805078 400.004276,114.228897 408.324743,114.228897 C409.776411,114.228897 410.953613,113.051205 410.953613,111.597336 C410.953613,110.143467 409.777126,108.96506 408.324743,108.96506 C399.45034,108.96506 389.53025,107.249323 379.53654,104.165575 C379.492225,104.154843 379.454343,104.13624 379.410743,104.127654 C368.340612,100.699042 357.181851,95.5926123 347.253898,89.1968759 C335.016571,81.3136425 314.486652,64.7873287 314.486652,42.671632 L314.486652,30.5155115 C314.486652,30.2157226 314.43662,29.91808 314.335839,29.6361783 L309.33684,15.5289253 C308.964452,14.4771597 307.971657,13.7774136 306.858783,13.7774136 L306.818042,13.7774136 C305.691587,13.7945853 304.700222,14.5308212 304.35571,15.6054823 L300.421696,27.8846666 L298.271712,27.8846666 L291.897523,2.18080373 C291.605903,1.00597442 290.553068,0.183164618 289.345846,0.183164618 L289.325119,0.183164618 C288.110749,0.19389692 287.057914,1.03674036 286.785593,2.22373294 L280.866703,27.8846666 L278.690273,27.8846666 L274.312396,15.5289253 C273.940724,14.4778752 272.945784,13.7774136 271.834339,13.7774136 L271.795028,13.7774136 C270.667144,13.7945853 269.675778,14.5308212 269.331266,15.6054823 L264.812583,29.7127353 C264.728956,29.972457 264.685356,30.2436265 264.685356,30.516227 L264.685356,56.5570841 L146.268257,56.5570841 L146.268257,30.5155115 C146.268257,30.2157226 146.216795,29.91808 146.118159,29.6361783 L141.119159,15.5289253 C140.741769,14.4642809 139.718239,13.7230366 138.601076,13.7766981 C137.473192,13.7938698 136.483256,14.5301057 136.138029,15.6047669 L132.203301,27.8839511 L130.051887,27.8839511 L123.678413,2.18008824 C123.385364,0.999535043 122.282496,0.168139395 121.106009,0.182449131 C119.889495,0.19389692 118.840234,1.03602487 118.565768,2.22301745 L112.646164,27.8839511 L110.469734,27.8839511 L106.091857,15.5289253 C105.715181,14.4649964 104.705231,13.7230366 103.574488,13.7766981 C102.446604,13.7938698 101.455239,14.5301057 101.110727,15.6047669 L96.5920431,29.7120199 C96.5084167,29.9717416 96.4655314,30.242911 96.4655314,30.5155115 L96.4655314,42.6709166 C96.4655314,64.7851822 75.9370419,81.3122115 63.6997149,89.195445 C53.7710478,95.5904659 42.6137162,100.699042 31.5421553,104.126223 C31.4828306,104.138387 31.4285091,104.163429 31.3691844,104.178454 C21.3911992,107.252185 11.4889781,108.963629 2.62887032,108.963629 C1.17648737,108.963629 1.8410079e-14,110.142036 1.8410079e-14,111.595905 C1.8410079e-14,113.049774 1.17648737,114.227466 2.62887032,114.227466 C10.948623,114.227466 20.126797,112.803647 29.4393449,110.217878 L29.4393449,162.915626 L2.62887032,162.915626 C1.17791688,162.915626 0,164.094033 0,165.547187 L0,178.15621 C0,179.610079 1.17791688,180.789202 2.62887032,180.789202 L88.7097207,180.789202 L88.7097207,238.274988 C88.7097207,239.728141 89.886208,240.906548 91.338591,240.906548 L151.394483,240.906548 C152.846151,240.906548 154.023353,239.728857 154.023353,238.274988 L154.023353,202.533561 L205.476449,181.011003 L256.929545,202.535707 L256.929545,238.276419 C256.929545,239.730288 258.106033,240.907979 259.559845,240.907979 L319.613593,240.907979 C321.065261,240.907979 322.243893,239.730288 322.243893,238.276419 L322.243893,180.790633 L408.324743,180.790633 C409.776411,180.790633 410.955043,179.612941 410.955043,178.158357 L410.955043,165.549333 C410.953613,164.096179 409.777126,162.917057 408.324743,162.917057 Z M376.255813,108.649531 L376.255813,162.917057 L346.672802,162.917057 L346.672802,95.0259468 C355.916019,100.709058 366.080555,105.358292 376.255813,108.649531 Z M341.415776,91.6266691 L341.415776,162.919204 L314.486652,162.919204 L314.486652,63.1603117 C319.750826,73.3302409 328.876823,83.0308108 341.415776,91.6266691 Z M269.944526,175.526081 L269.944526,170.231479 L269.944526,71.7411448 L269.944526,59.18936 L269.944526,45.3046234 L309.231056,45.3046234 L309.231056,165.549333 L309.231056,175.526081 L269.944526,175.526081 L269.944526,175.526081 Z M259.559845,175.526081 L205.493603,175.526081 L205.480738,175.526081 L205.47502,175.526081 L205.455721,175.526081 L151.395912,175.526081 L146.268972,175.526081 L146.268972,172.863039 L264.686786,172.863039 L264.686786,175.526081 L259.559845,175.526081 Z M192.36855,180.789917 L161.086566,193.876886 L161.086566,180.789917 L192.36855,180.789917 Z M249.867047,180.789917 L249.867047,193.876886 L218.586493,180.789917 L249.867047,180.789917 Z M101.723272,175.526081 L101.723272,165.549333 L101.723272,45.3039079 L141.010517,45.3039079 L141.010517,59.1886446 L141.010517,71.7404293 L141.010517,170.230048 L141.010517,175.52465 L101.723272,175.526081 L101.723272,175.526081 Z M264.685356,167.599918 L146.268257,167.599918 L146.268257,74.3719897 L264.685356,74.3719897 L264.685356,167.599918 L264.685356,167.599918 Z M271.958707,24.6363566 L274.355996,31.3962758 C274.727669,32.4466104 275.71975,33.1477874 276.832624,33.1477874 L282.958078,33.1477874 C284.181024,33.1477874 285.241721,32.302082 285.518331,31.1079346 L289.43805,14.1122614 L293.663684,31.1494328 C293.955304,32.3242621 295.006709,33.1470719 296.21536,33.1470719 L302.337955,33.1470719 C303.481564,33.1470719 304.492228,32.4079741 304.841029,31.3190032 L306.982436,24.6349256 L309.227482,30.9684147 L309.227482,40.0407871 L269.941667,40.0407871 L269.941667,30.9276319 L271.958707,24.6363566 Z M264.685356,61.820205 L264.685356,69.1088689 L146.268257,69.1088689 L146.268257,61.820205 L264.685356,61.820205 Z M103.738882,24.6363566 L106.134027,31.3962758 C106.506415,32.4466104 107.49921,33.1477874 108.612084,33.1477874 L114.737538,33.1477874 C115.961199,33.1477874 117.023326,32.302082 117.298507,31.1079346 L121.219655,14.1108304 L125.444574,31.1487173 C125.735479,32.3235466 126.787599,33.1463564 127.996251,33.1463564 L134.120989,33.1463564 C135.263169,33.1463564 136.275262,32.4072586 136.623348,31.3182877 L138.76547,24.6342101 L141.009802,30.9676992 L141.009802,40.0400716 L101.722557,40.0400716 L101.722557,30.9269164 L103.738882,24.6363566 Z M96.4655314,63.1603117 L96.4655314,162.919204 L69.5385517,162.919204 L69.5385517,91.6273846 C82.0767907,83.0308108 91.2013579,73.3302409 96.4655314,63.1603117 Z M34.6978003,108.650246 C44.873058,105.358292 55.0368796,100.709058 64.280811,95.0259468 L64.280811,162.918488 L34.6978003,162.918488 L34.6978003,108.650246 Z M5.25774063,168.180893 L96.4655314,168.180893 L96.4655314,175.526796 L91.338591,175.526796 L5.25774063,175.526796 L5.25774063,168.180893 Z M148.764898,235.644858 L93.9674613,235.644858 L93.9674613,180.790633 L99.0944017,180.790633 L143.639387,180.790633 L148.766327,180.790633 L148.766327,200.782764 L148.766327,235.644858 L148.764898,235.644858 L148.764898,235.644858 Z M154.023353,180.789917 L155.828825,180.789917 L155.828825,196.074861 L154.023353,196.831131 L154.023353,180.789917 Z M255.124073,196.074146 L255.124073,180.789917 L256.93026,180.789917 L256.93026,196.831131 L255.124073,196.074146 Z M316.984008,235.644858 L262.188001,235.644858 L262.188001,200.782764 L262.188001,180.790633 L267.314226,180.790633 L311.859212,180.790633 L316.985437,180.790633 L316.985437,235.644858 L316.984008,235.644858 L316.984008,235.644858 Z M405.695158,175.526081 L319.615737,175.526081 L314.488082,175.526081 L314.488082,168.180178 L405.695158,168.180178 L405.695158,175.526081 Z" id="Shape"></path>
                </g>
                <rect id="Rectangle-5" fill="#FFFFFF" x="442" y="276" width="97.106087" height="152.692563"></rect>
                <rect id="Rectangle-5" fill="#FFFFFF" x="30.4069565" y="252.456554" width="97.106087" height="241.543446"></rect>
                <g id="Group-9" opacity="0.180387127" fill="#FF0755">
                    <path d="M150.454602,418.947073 L132.088322,418.947073 L132.088322,134.34463 C132.088322,134.318281 132.080343,134.293529 132.080343,134.266381 C132.075556,134.129846 132.061991,133.99331 132.03965,133.858372 C132.030075,133.814457 132.023692,133.770542 132.01651,133.725828 C131.9822,133.569331 131.933528,133.41523 131.874483,133.265919 C131.858524,133.232384 131.841768,133.201244 131.82581,133.167709 C131.771552,133.051135 131.710113,132.938553 131.643089,132.829963 C131.615162,132.786847 131.585639,132.74373 131.556117,132.701412 C131.532977,132.667877 131.512232,132.631947 131.487496,132.600009 L108.336952,103.010112 L108.336952,73.5136345 C108.336952,71.9510605 107.071468,70.6839145 105.508363,70.6839145 L97.3752721,70.6839145 L97.3752721,47.0057692 C97.3752721,45.4431953 96.1097878,44.1760492 94.5466832,44.1760492 L90.0680175,44.1760492 L90.0680175,27.8101432 C90.0680175,26.2475693 88.8025331,24.9812217 87.2394285,24.9812217 L79.587477,24.9812217 L79.587477,2.82972 C79.587477,1.26634761 78.3219926,0 76.7604839,0 C75.1989751,0 73.9334907,1.26634761 73.9334907,2.82972 L73.9334907,24.9804232 L66.2990932,24.9804232 C64.7367865,24.9804232 63.4713021,26.2467708 63.4713021,27.8093448 L63.4713021,44.1760492 L58.9910406,44.1760492 C57.4295319,44.1760492 56.1640475,45.4431953 56.1640475,47.0057692 L56.1640475,70.6847129 L48.0301587,70.6847129 C46.467852,70.6847129 45.2023676,71.951859 45.2023676,73.5144329 L45.2023676,103.01091 L22.0526211,132.600807 C22.027088,132.634342 22.0063423,132.669474 21.982405,132.703808 C21.9528824,132.745327 21.9233597,132.787645 21.8970287,132.83156 C21.8268127,132.941747 21.7653737,133.055127 21.7127117,133.171701 C21.6975514,133.204438 21.6791995,133.233981 21.6664329,133.266717 C21.604196,133.416827 21.5571193,133.571727 21.5220113,133.728224 C21.5124364,133.770542 21.506851,133.813658 21.5004677,133.857573 C21.4765305,133.994109 21.4613702,134.132241 21.4581785,134.270374 C21.4581785,134.295924 21.4501995,134.319878 21.4501995,134.345428 L21.4501995,418.947073 L3.07514298,418.947073 C1.51443212,418.947073 0.247351926,420.214219 0.247351926,421.776793 L0.247351926,444.636523 C0.247351926,446.199895 1.51443212,447.466243 3.07514298,447.466243 L150.453804,447.466243 C152.016908,447.466243 153.282393,446.199895 153.282393,444.636523 L153.282393,421.776793 C153.282393,420.214219 152.017706,418.947073 150.454602,418.947073 Z M27.1065795,137.17435 L126.431144,137.17435 L126.431144,234.307044 L27.1065795,234.307044 L27.1065795,137.17435 Z M84.4116375,30.6398632 L84.4116375,44.1768477 L69.1252884,44.1768477 L69.1252884,30.6398632 L84.4116375,30.6398632 Z M66.2974974,49.8354892 L87.2402264,49.8354892 L91.7188921,49.8354892 L91.7188921,70.6847129 L61.8172359,70.6847129 L61.8172359,49.8354892 L66.2974974,49.8354892 Z M58.9910406,76.3441529 L94.5474811,76.3441529 L102.680572,76.3441529 L102.680572,101.157699 L50.8563539,101.157699 L50.8563539,76.3441529 L58.9910406,76.3441529 Z M49.4065525,106.816341 L104.132767,106.816341 L123.454144,131.51491 L30.0843775,131.51491 L49.4065525,106.816341 Z M27.1065795,239.966484 L126.431144,239.966484 L126.431144,418.947073 L27.1065795,418.947073 L27.1065795,239.966484 Z M147.627609,441.806803 L5.90293403,441.806803 L5.90293403,424.606513 L24.2779905,424.606513 L129.258935,424.606513 L147.625215,424.606513 L147.625215,441.806803 L147.627609,441.806803 Z" id="Shape"></path>
                    <path d="M76.7596859,143.576352 C54.4198175,143.576352 36.2450363,161.763531 36.2450363,184.119437 C36.2450363,206.478536 54.4198175,224.668909 76.7596859,224.668909 C99.1059377,224.668909 117.287102,206.478536 117.287102,184.119437 C117.286304,161.764329 99.1059377,143.576352 76.7596859,143.576352 Z M76.7596859,219.010268 C57.5372497,219.010268 41.8998205,203.357381 41.8998205,184.119437 C41.8998205,164.883888 57.5388455,149.23659 76.7596859,149.23659 C95.9877076,149.23659 111.63152,164.884686 111.63152,184.119437 C111.630722,203.358179 95.9893034,219.010268 76.7596859,219.010268 Z" id="Shape"></path>
                    <path d="M48.449859,258.381222 C46.8883503,258.381222 45.622068,259.64757 45.622068,261.211741 L45.622068,405.030024 C45.622068,406.593397 46.8883503,407.859744 48.449859,407.859744 C50.0121657,407.859744 51.2776501,406.593397 51.2776501,405.030024 L51.2776501,261.210942 C51.2776501,259.64757 50.0113678,258.381222 48.449859,258.381222 Z" id="Shape"></path>
                    <path d="M67.2047204,258.381222 C65.6424137,258.381222 64.3769294,259.64757 64.3769294,261.211741 L64.3769294,405.030024 C64.3769294,406.593397 65.6424137,407.859744 67.2047204,407.859744 C68.7662292,407.859744 70.0325115,406.593397 70.0325115,405.030024 L70.0325115,261.210942 C70.0325115,259.64757 68.7662292,258.381222 67.2047204,258.381222 Z" id="Shape"></path>
                    <path d="M85.9563901,258.381222 C84.3932856,258.381222 83.1278012,259.64757 83.1278012,261.211741 L83.1278012,405.030024 C83.1278012,406.593397 84.3932856,407.859744 85.9563901,407.859744 C87.5163031,407.859744 88.7849791,406.593397 88.7849791,405.030024 L88.7849791,261.210942 C88.7833833,259.64757 87.5163031,258.381222 85.9563901,258.381222 Z" id="Shape"></path>
                    <path d="M104.709656,258.381222 C103.148147,258.381222 101.882663,259.64757 101.882663,261.211741 L101.882663,405.030024 C101.882663,406.593397 103.148147,407.859744 104.709656,407.859744 C106.27276,407.859744 107.538245,406.593397 107.538245,405.030024 L107.538245,261.210942 C107.538245,259.64757 106.27276,258.381222 104.709656,258.381222 Z" id="Shape"></path>
                    <path d="M76.7604839,181.290515 L54.1660823,181.290515 C52.6053714,181.290515 51.3382912,182.556863 51.3382912,184.120235 C51.3382912,185.683608 52.6053714,186.949955 54.1660823,186.949955 L73.9334907,186.949955 L73.9334907,208.192817 C73.9334907,209.756189 75.1989751,211.022537 76.7604839,211.022537 C78.3227905,211.022537 79.5882749,209.756189 79.5882749,208.192817 L79.5882749,184.120235 C79.5882749,182.556863 78.3227905,181.290515 76.7604839,181.290515 Z" id="Shape"></path>
                </g>
                <g id="noun_267761_cc" opacity="0.180387127" transform="translate(436.000000, 105.000000)" fill="#FF0755">
                    <g id="Group">
                        <path d="M119.334716,322.413679 C119.585298,320.044064 119.904587,317.236233 120.276417,313.953667 C121.117077,306.572966 122.224484,296.851054 123.291476,285.400621 C123.525891,282.884934 123.756264,280.259693 123.982595,277.581704 C124.629257,269.953492 125.227418,261.708531 125.712414,252.960433 C125.865997,250.20535 126.003412,247.397519 126.128703,244.549112 C126.282285,241.100186 126.4197,237.60257 126.524783,234.031917 C126.589449,231.950389 126.637949,229.836401 126.682407,227.718355 C127.050195,210.376346 126.787489,191.865759 125.449708,173.038683 C125.219335,169.772348 124.960671,166.497897 124.66159,163.219389 C124.427175,160.663126 124.16851,158.102806 123.893679,155.538429 C123.699681,153.75716 123.485474,151.979949 123.271268,150.19868 C122.4104,143.053318 121.375741,135.912013 120.126876,128.827514 C119.383216,124.59548 118.558723,120.387791 117.66148,116.204447 C115.907411,108.020349 113.858302,99.9498634 111.469697,92.0619677 C111.30399,91.5182548 111.158491,90.9664267 110.988742,90.4267713 C110.726036,89.5787413 110.467371,88.7834597 110.208707,87.9476024 C106.130698,74.9431242 102.307313,63.8375838 98.7345083,54.3591248 C97.8574737,52.0341432 96.9925641,49.7903128 96.1478626,47.6560365 C95.0808713,44.9658745 94.0421714,42.4380149 93.0236796,40.0359397 C92.4942256,38.7862114 91.9688132,37.5608284 91.451484,36.3881937 C81.8202705,14.5138904 74.4887466,5.52233849 69.5458284,2.04500999 C68.7900428,1.5134697 68.0908402,1.10771375 67.4441788,0.807454343 C66.1589392,0.206935535 65.0879062,0 64.251288,0 L63.8552079,0 C61.2160209,0 56.3256439,1.94357101 49.2689512,12.4526501 C48.17771,14.0797315 47.0258444,15.9340362 45.8295207,17.9952764 C42.8750864,23.0875136 39.6054046,29.5674362 36.0204753,37.8367424 C35.1272742,39.8939251 34.2098233,42.0931224 33.2802475,44.3775284 C32.8437511,45.4487241 32.403213,46.5320925 31.9586333,47.6560365 C31.1139318,49.7903128 30.2490221,52.0341432 29.3719876,54.3591248 C25.5728517,64.434045 21.4988848,76.3064642 17.1298785,90.3861957 C17.1258369,90.3983683 17.1217953,90.410541 17.1177536,90.4227137 C16.3336767,92.9505733 15.590016,95.4946631 14.8746468,98.0590407 C12.5143326,106.535283 10.5379737,115.206287 8.8728205,123.966558 C8.33124156,126.819023 7.82603733,129.68366 7.34912453,132.556412 C3.44490619,156.15112 1.73529506,180.240851 1.35133984,203.113314 C1.31900677,205.03254 1.30284024,206.939593 1.29071533,208.83853 C1.27859043,210.477785 1.2745488,212.108923 1.2745488,213.736005 L1.2745488,214.170164 C1.2866737,225.969547 1.61000441,237.367231 2.13541682,248.087304 C2.31729034,251.779683 2.52341367,255.374681 2.74570353,258.9007 C3.03670117,263.558778 3.36003188,268.062669 3.69952913,272.38397 C3.80865324,273.771655 3.91777736,275.139053 4.03094311,276.49022 C5.31214105,291.844025 6.77925415,304.73895 7.83007896,313.961782 C8.20595091,317.244348 8.52119835,320.048122 8.77177965,322.405564 L0.324764835,322.405564 L0.324764835,342.41339 L127.793856,342.41339 L127.793856,322.405564 L119.334716,322.405564 L119.334716,322.413679 Z M120.660372,238.061074 C114.1493,230.323308 107.771602,222.532794 101.539402,214.685474 C107.868601,199.522374 113.838094,184.196972 119.383216,168.684922 C121.327242,192.786825 121.436366,216.527606 120.660372,238.061074 Z M99.8944572,212.632349 C93.1287621,204.06684 86.4802744,195.444527 80.0379099,186.728889 C86.3064841,170.847601 92.0981455,154.73909 97.4937267,138.415528 C104.311963,147.252892 111.263573,156.000991 118.409182,164.63142 C112.69027,180.833255 106.474237,196.807867 99.8944572,212.632349 Z M75.0545754,108.206997 C81.7919791,117.673283 88.7314644,126.997555 95.812407,136.224445 C90.4451172,152.56018 84.6817473,168.680864 78.4414646,184.570267 C71.6959776,175.392067 65.1808638,166.096199 58.7829573,156.735409 C64.6514097,140.793257 70.0712408,124.623883 75.0545754,108.206997 Z M57.2026785,154.398255 C50.4652748,144.481579 43.8935781,134.459407 37.5239631,124.315508 C42.9842105,108.186709 47.9958365,91.8144566 52.5669244,75.1662899 C59.3326196,85.5374121 66.2357302,95.7949225 73.3651724,105.877958 C68.4141709,122.290786 63.0347562,138.460161 57.2026785,154.398255 Z M112.334606,118.683616 C114.856586,130.681819 116.748071,142.911304 118.102018,155.152961 C111.841527,147.472 105.706327,139.705832 99.7004588,131.862569 C99.1427133,131.132208 98.5728429,130.405905 98.0150975,129.675544 C90.9058635,120.330985 83.9057536,110.909332 77.1441001,101.317261 C76.582313,100.517922 76.040734,99.7023523 75.4789469,98.8989555 C68.31313,88.6739056 61.3857696,78.2581503 54.5958246,67.7287834 C54.0380792,66.8645232 53.4803337,66.0043206 52.9266298,65.1400604 C49.8832795,60.3886582 46.8601374,55.6210258 43.8895365,50.8047026 C48.3595836,49.9445 52.6962567,49.3520963 56.9723054,49.0437218 C57.7685072,48.986916 58.5727924,48.9301101 59.3649526,48.8895345 C60.9937311,48.8124409 62.6184679,48.7556351 64.2391631,48.7596926 C69.9661583,57.9176045 75.875027,66.9253866 81.8728117,75.8520175 C82.4345988,76.6878748 83.0085109,77.5075018 83.5743396,78.3393015 C90.3885343,88.4142217 97.3805609,98.3430699 104.554461,108.142076 C105.12029,108.91707 105.673994,109.700179 106.243864,110.471115 C108.268723,113.214025 110.285498,115.960993 112.334606,118.683616 Z M71.2513979,49.0477794 C76.6712289,49.4413626 82.1799759,50.2731623 87.9514291,51.5553511 C86.605565,57.2440496 85.2839507,62.9449207 83.8451291,68.5686982 C79.5650388,62.1334088 75.390031,55.6088531 71.2513979,49.0477794 Z M91.8637307,52.4845323 C96.0023638,63.1072231 100.565368,76.1319891 105.524453,92.1309463 C106.171115,94.2165318 106.77736,96.3224052 107.375522,98.4323362 C107.116857,99.3534022 106.886484,100.294756 106.623778,101.211764 C99.4256277,91.2910314 92.3770182,81.2607443 85.5466569,71.0559822 C87.1673521,64.7829952 88.6789232,58.4369721 90.1783694,52.0828339 C90.7441981,52.2207909 91.2979019,52.3425177 91.8637307,52.4845323 Z M68.3414215,8.60202616 C72.4517631,12.6352403 79.5529139,22.4139587 89.2366687,45.9315737 C81.6666884,44.2314562 74.5332046,43.2738722 67.4724702,43.0385337 C65.8558166,40.4335805 64.2876627,37.7839942 62.6912173,35.1587532 C64.6877845,26.3863095 66.5671442,17.5367722 68.3414215,8.60202616 Z M63.4874192,5.87940373 L63.4752943,6.01736075 L64.2149133,5.75767695 C64.2472464,5.76173451 64.9706988,5.87534617 66.3286878,6.86944825 C64.6433265,15.4268413 62.8447994,23.8990255 60.9573564,32.3062888 C58.1201294,27.6116925 55.2909857,22.908981 52.5224665,18.1535213 C58.532376,8.50870229 62.2870539,6.34602308 63.4874192,5.87940373 Z M49.1921601,23.8787377 C52.4335505,29.4051338 55.7638568,34.8422635 59.0941632,40.2834508 C58.8718733,41.2288622 58.6334169,42.1621009 58.411127,43.1034547 C52.6437155,43.4240019 46.8035545,44.2355138 40.6885624,45.5258177 C40.3652317,44.9942774 40.041901,44.4627371 39.7185703,43.9271393 C43.2347918,35.5401638 46.3993911,28.9831476 49.1921601,23.8787377 Z M22.5982092,92.1350038 C27.5613356,76.123874 32.1202986,63.1153382 36.2629733,52.4845323 C36.8368854,52.3425177 37.3946308,52.2167333 37.9604596,52.0828339 C42.1960919,58.9806851 46.5165985,65.8095577 50.8977296,72.577567 C46.3549332,89.2622517 41.3756402,105.67508 35.9396426,121.832282 C30.879517,113.72122 25.9204322,105.545238 21.0866381,97.2759317 C21.5837591,95.559584 22.0687551,93.8351213 22.5982092,92.1350038 Z M18.9971134,104.940662 C23.7500748,112.970572 28.616202,120.927446 33.5874117,128.811284 C34.1087825,129.643084 34.6422782,130.466769 35.1676906,131.294511 C41.521139,141.308568 48.0362528,151.217128 54.7494067,161.012077 C55.2829024,161.78707 55.7961899,162.574237 56.3296856,163.349231 C62.6952589,172.580179 69.2144144,181.729975 75.9154434,190.782391 C76.4448974,191.496521 76.9945596,192.198479 77.5280553,192.908552 C83.9906279,201.591729 90.6391156,210.18564 97.4209773,218.718688 C97.9625562,219.400358 98.5081768,220.07797 99.0497557,220.755583 C105.585078,228.935623 112.26994,237.058857 119.108385,245.11717 C119.512548,245.591905 119.908628,246.070697 120.312792,246.545431 C120.2845,247.109432 120.26025,247.681548 120.231959,248.241491 C119.823754,256.486452 119.298342,264.313484 118.724429,271.645494 C116.703613,269.377318 114.678754,267.117258 112.682187,264.840967 C112.136566,264.22016 111.574779,263.603411 111.029159,262.982605 C104.166464,255.114997 97.4209773,247.210871 90.8614055,239.229651 C90.3157849,238.564211 89.7863309,237.890657 89.2407103,237.225217 C82.4952233,228.980256 75.9437348,220.650086 69.505412,212.267168 C68.9719164,211.573326 68.4545872,210.871368 67.9210916,210.177525 C61.2321875,201.421312 54.713032,192.583947 48.3515003,183.665431 C47.8260879,182.931013 47.2966338,182.196595 46.7712214,181.458119 C40.1065672,172.064869 33.5631619,162.606697 27.2460881,153.014627 C26.7247174,152.223403 26.2033466,151.428121 25.6860175,150.636897 C21.4988848,144.238125 17.3966264,137.786606 13.3590341,131.294511 C14.8908134,122.392225 16.7661315,113.583263 18.9971134,104.940662 Z M66.8419753,218.272356 C73.292423,226.618756 79.8641197,234.90835 86.6217315,243.124908 C79.2740411,259.172556 71.4171049,275.013269 63.1438803,290.695736 C56.7136408,282.45889 50.4167752,274.177411 44.2734917,265.835069 C52.2880517,250.156659 59.7974075,234.307832 66.8419753,218.272356 Z M42.7538374,263.786001 C36.4286803,255.163687 30.216689,246.49674 24.1946546,237.756757 C31.8899255,222.013426 39.0921171,206.091563 45.7971877,189.958706 C52.1344696,198.775783 58.6051255,207.523881 65.2616965,216.182713 C58.2332951,232.230361 50.7481892,248.099476 42.7538374,263.786001 Z M88.2707182,245.072537 C94.8019985,252.972605 101.507069,260.807753 108.329347,268.598267 C100.646201,284.759526 92.5467668,300.754426 83.9421283,316.55862 C77.3906398,308.646379 70.9806084,300.68139 64.6999094,292.675825 C73.005467,276.985242 80.8947363,261.132357 88.2707182,245.072537 Z M109.982375,270.460687 C112.657937,273.503856 115.345624,276.542968 118.069685,279.569908 C116.86932,293.296632 115.555789,304.848504 114.589838,313.304458 C114.181633,316.862937 113.834052,319.91828 113.575388,322.417736 L88.7678391,322.417736 C87.6685147,321.103087 86.605565,319.780323 85.5102822,318.465673 C94.1432122,302.645249 102.270938,286.634119 109.982375,270.460687 Z M12.0010451,139.839731 C15.6910569,145.686674 19.4012768,151.525502 23.2165792,157.295352 C18.2332446,170.202449 12.874038,182.935071 7.26425022,195.566253 C7.80178752,177.331581 9.23656755,158.467987 12.0010451,139.839731 Z M7.12683466,201.543038 C13.371159,187.722991 19.3002359,173.777159 24.7928164,159.632506 C31.089682,169.106908 37.580546,178.467698 44.2169088,187.755451 C37.536088,203.904538 30.3621879,219.838574 22.6911668,235.594078 C17.3440851,227.799506 12.1222941,219.952186 7.00962728,212.060233 C7.01771055,208.582904 7.05812689,205.077173 7.12683466,201.543038 Z M8.37569953,256.912496 C7.72095484,246.16402 7.24404205,234.616206 7.07429342,222.553082 C11.2654678,228.903162 15.4889752,235.24107 19.82969,241.530287 C20.3268109,242.248475 20.8441401,242.958548 21.3453027,243.676736 C27.347129,252.327453 33.5187039,260.909192 39.8115279,269.446297 C40.3167321,270.127967 40.8300196,270.809637 41.3352239,271.491307 C47.4946739,279.809304 53.7996228,288.074553 60.2419872,296.287053 C60.7593163,296.948435 61.2766455,297.609817 61.7980162,298.2712 C68.0463822,306.203729 74.4240805,314.095682 80.9391943,321.938944 C80.8502784,322.097189 80.7613624,322.255434 80.6764881,322.413679 L58.1807539,322.413679 C56.236728,320.040006 54.2401609,317.682564 52.3203848,315.300777 C51.8030556,314.659683 51.2816849,314.018588 50.7643557,313.377494 C44.3381578,305.367871 38.0736253,297.301443 31.9182169,289.194439 C31.408971,288.524942 30.923975,287.847329 30.4147291,287.177832 C24.0976553,278.819259 17.9422469,270.395766 11.9121292,261.927639 C11.4109666,261.225681 10.9219289,260.519666 10.4248079,259.817708 C9.73773015,258.852009 9.05469403,257.882252 8.37569953,256.912496 Z M50.7441475,322.413679 L48.3474587,322.413679 C48.6788726,321.837505 48.9860368,321.257274 49.3134092,320.681101 C49.7862803,321.261332 50.275318,321.833448 50.7441475,322.413679 Z M28.8506168,294.684317 C35.0141085,302.762918 41.3150157,310.792828 47.7492968,318.778105 C47.0622191,319.983201 46.4155577,321.208584 45.7203966,322.413679 L14.5472745,322.413679 C14.4704834,321.667088 14.3694426,320.774425 14.276485,319.930452 C19.2840694,311.555649 24.1421133,303.140271 28.8506168,294.684317 Z M13.8601967,316.165037 C13.7551142,315.227741 13.6540734,314.339135 13.536866,313.31663 C12.3082093,302.555983 10.5096822,286.796421 9.1112769,267.904424 C15.060562,276.206191 21.1270544,284.467382 27.3511706,292.66771 C22.9821644,300.535318 18.4878675,308.370465 13.8601967,316.165037 Z M122.070902,336.671943 L6.05176005,336.671943 L6.05176005,328.163241 L122.066861,328.163241 L122.066861,336.671943 L122.070902,336.671943 Z" id="Shape"></path>
                    </g>
                </g>
            </g>
        </g>
    </g>
</svg>