<?xml version="1.0" encoding="iso-8859-1"?>
<!-- Generator: Adobe Illustrator 16.0.0, SVG Export Plug-In . SVG Version: 6.00 Build 0)  -->
<!DOCTYPE svg PUBLIC "-//W3C//DTD SVG 1.1//EN" "http://www.w3.org/Graphics/SVG/1.1/DTD/svg11.dtd">
<svg version="1.1" id="Capa_1" xmlns="http://www.w3.org/2000/svg" xmlns:xlink="http://www.w3.org/1999/xlink" x="0px" y="0px"
	 width="560.994px" height="560.994px" viewBox="0 0 560.994 560.994" style="enable-background:new 0 0 560.994 560.994;"
	 xml:space="preserve">
<g>
	<g>
		<g>
			<path d="M255.227,290.659c-21.108,0-38.219,17.113-38.219,38.22v170.78c0,21.107,17.113,38.222,38.219,38.222
				s38.22-17.115,38.22-38.222v-170.78C293.448,307.772,276.334,290.659,255.227,290.659z"/>
			<path d="M389.002,156.886c-21.11,0-38.222,17.113-38.222,38.219v304.554c0,21.107,17.112,38.222,38.222,38.222
				c21.107,0,38.221-17.115,38.221-38.222V195.105C427.223,173.999,410.107,156.886,389.002,156.886z"/>
			<path d="M522.774,23.113c-21.107,0-38.221,17.113-38.221,38.219v438.327c0,21.107,17.114,38.222,38.221,38.222
				c21.105,0,38.22-17.115,38.22-38.222V61.332C560.994,40.224,543.883,23.113,522.774,23.113z"/>
			<path d="M237.403,142.047c5.396-5.394,7-13.494,4.088-20.528c-2.913-7.036-9.78-11.626-17.412-11.626H18.844
				c-7.613,0-14.48,4.59-17.41,11.626c-2.913,7.034-1.308,15.137,4.086,20.528l77.711,77.71v279.902
				c0,21.107,17.114,38.222,38.222,38.222s38.219-17.115,38.219-38.222V219.796L237.403,142.047z"/>
		</g>
	</g>
</g>
<g>
</g>
<g>
</g>
<g>
</g>
<g>
</g>
<g>
</g>
<g>
</g>
<g>
</g>
<g>
</g>
<g>
</g>
<g>
</g>
<g>
</g>
<g>
</g>
<g>
</g>
<g>
</g>
<g>
</g>
</svg>
