<?xml version="1.0" encoding="iso-8859-1"?>
<!-- Generator: Adobe Illustrator 16.0.0, SVG Export Plug-In . SVG Version: 6.00 Build 0)  -->
<!DOCTYPE svg PUBLIC "-//W3C//DTD SVG 1.1//EN" "http://www.w3.org/Graphics/SVG/1.1/DTD/svg11.dtd">
<svg version="1.1" id="Capa_1" xmlns="http://www.w3.org/2000/svg" xmlns:xlink="http://www.w3.org/1999/xlink" x="0px" y="0px"
	 width="575.245px" height="575.245px" viewBox="0 0 575.245 575.245" style="enable-background:new 0 0 575.245 575.245;"
	 xml:space="preserve">
<g>
	<g>
		<g>
			<path d="M431.146,305.701c0,8.141-2.834,16.045-7.701,22.521v109.802c0,5.397-4.376,9.784-9.777,9.784H161.561
				c-5.402,0-9.777-4.385-9.777-9.784V71.292c0-5.404,4.375-9.788,9.777-9.788h18.564l17.711-25.889V0.009h-60.814
				c-21.397,0-38.746,17.346-38.746,38.758v497.722c0,21.405,17.348,38.756,38.746,38.756h301.202
				c21.399,0,38.746-17.349,38.746-38.756V236.91l-45.822,11.403L431.146,305.701L431.146,305.701z M287.611,546.473
				c-21.13,0-38.211-17.09-38.211-38.205c0-21.102,17.081-38.223,38.211-38.223c21.078,0,38.213,17.121,38.213,38.223
				C325.825,529.381,308.689,546.473,287.611,546.473z"/>
			<path d="M438.223,0.008H283.674v48.113v5.394l-2.776,4.623l-2.016,3.366h134.785c5.401,0,9.777,4.384,9.777,9.788v93.652
				l44.185-24.166l9.34-5.108V38.764C476.969,17.354,459.623,0.008,438.223,0.008z"/>
			<path d="M188.777,96.731l29.35,80.25c0.402,1.085,0.535,2.246,0.383,3.378l-11.395,86.786c-0.171,1.834,0.742,3.688,2.474,4.584
				c0.665,0.343,1.369,0.504,2.073,0.504c1.675,0,3.291-0.914,4.111-2.501l43.595-84.921c2.434-4.755,2.646-10.347,0.553-15.276
				l-26.955-63.672c-0.877-2.091-0.722-4.48,0.457-6.43l30.777-51.31V0h-46.887v41.639l-26.477,38.709
				C187.54,85.158,186.762,91.253,188.777,96.731z"/>
			<path d="M366.038,231.165l5.646,54.125c0.096,0.865-0.208,1.722-0.835,2.33l-45.577,44.585
				c-4.623,4.508-6.467,11.139-4.869,17.387l18.013,70.072c0.418,1.723,1.77,3.148,3.613,3.635c0.418,0.105,0.836,0.154,1.254,0.154
				c2.248,0,4.299-1.514,4.87-3.787l11.354-54.686c0.115-0.552,0.384-1.058,0.802-1.455l45.937-44.927
				c3.462-3.396,5.422-8.047,5.422-12.897v-70.387c0-1.303,0.895-2.444,2.167-2.768l63.131-15.702v-58.977l-101.649,55.59
				C368.927,216.948,365.276,223.929,366.038,231.165z"/>
		</g>
	</g>
</g>
<g>
</g>
<g>
</g>
<g>
</g>
<g>
</g>
<g>
</g>
<g>
</g>
<g>
</g>
<g>
</g>
<g>
</g>
<g>
</g>
<g>
</g>
<g>
</g>
<g>
</g>
<g>
</g>
<g>
</g>
</svg>
