<?xml version="1.0" encoding="iso-8859-1"?>
<!-- Generator: Adobe Illustrator 16.0.0, SVG Export Plug-In . SVG Version: 6.00 Build 0)  -->
<!DOCTYPE svg PUBLIC "-//W3C//DTD SVG 1.1//EN" "http://www.w3.org/Graphics/SVG/1.1/DTD/svg11.dtd">
<svg version="1.1" id="Capa_1" xmlns="http://www.w3.org/2000/svg" xmlns:xlink="http://www.w3.org/1999/xlink" x="0px" y="0px"
	 width="570.83px" height="570.83px" viewBox="0 0 570.83 570.83" style="enable-background:new 0 0 570.83 570.83;"
	 xml:space="preserve">
<g>
	<g>
		<g>
			<path d="M204.236,83.911h35.553c6.22,0,11.181-4.424,12.521-10.237h59.927c7.833,0,14.192-6.356,14.192-14.192
				s-6.359-14.192-14.192-14.192H252.31c-1.34-5.812-6.302-10.237-12.521-10.237h-35.553V83.911L204.236,83.911z"/>
			<path d="M487.24,0h-29.372v0.008c-12.909,0.018-23.376,21.879-23.376,48.858c0,26.987,10.467,48.858,23.376,48.876h41.993v58.717
				c0,5.22,3.243,9.647,7.816,11.467v257.796c0,53.488-43.509,96.996-96.995,96.996h-147.32v-51.334H371.36
				c46.86,0,84.984-38.121,84.984-84.983v-65.388c4.563-1.83,7.807-6.246,7.807-11.467v-58.735V222.15v-3.001
				c0-36.487-29.574-66.063-66.061-66.063h-29.374h-0.009c-12.917,0-23.394,21.879-23.394,48.868
				c0,26.996,10.479,48.858,23.394,48.858h0.009h41.984v58.735c0,5.221,3.232,9.637,7.797,11.467V386.4
				c0,25.991-21.148,47.139-47.139,47.139H263.304c-0.137-7.105-5.894-12.834-13.036-12.834h-26.186
				c-7.236,0-13.091,5.859-13.091,13.092v43.047H102.503c-26,0-47.148-21.149-47.148-47.139V126.404
				c0-12.519,5.11-24.751,14.017-33.547c8.778-8.658,20.826-13.591,33.144-13.591c0.202,0,0.406,0.008,0.6,0.008l27.617,0.361
				c2.391,2.595,5.757,4.278,9.562,4.278h35.563V35.055H140.29c-4.87,0-8.943,2.772-11.196,6.708l-25.481-0.333
				c-22.064-0.369-44.729,8.629-60.825,24.495C26.721,81.788,17.51,103.834,17.51,126.404v303.303
				c0,46.863,38.13,84.984,84.993,84.984h108.489v43.047c0,7.233,5.857,13.092,13.091,13.092h26.186
				c6.228,0,11.197-4.434,12.519-10.264h147.896c74.351,0,134.84-60.49,134.84-134.843v-257.8c4.563-1.83,7.797-6.247,7.797-11.467
				V97.742V69.054v-2.975C553.32,29.584,523.736,0,487.24,0z"/>
		</g>
	</g>
</g>
<g>
</g>
<g>
</g>
<g>
</g>
<g>
</g>
<g>
</g>
<g>
</g>
<g>
</g>
<g>
</g>
<g>
</g>
<g>
</g>
<g>
</g>
<g>
</g>
<g>
</g>
<g>
</g>
<g>
</g>
</svg>
