<?xml version="1.0" encoding="iso-8859-1"?>
<!-- Generator: Adobe Illustrator 16.0.0, SVG Export Plug-In . SVG Version: 6.00 Build 0)  -->
<!DOCTYPE svg PUBLIC "-//W3C//DTD SVG 1.1//EN" "http://www.w3.org/Graphics/SVG/1.1/DTD/svg11.dtd">
<svg version="1.1" id="Capa_1" xmlns="http://www.w3.org/2000/svg" xmlns:xlink="http://www.w3.org/1999/xlink" x="0px" y="0px"
	 width="577.437px" height="577.438px" viewBox="0 0 577.437 577.438" style="enable-background:new 0 0 577.437 577.438;"
	 xml:space="preserve">
<g>
	<g>
		<path d="M439.9,0H137.535C116.07,0,98.644,17.416,98.644,38.901v499.636c0,21.486,17.426,38.9,38.891,38.9h302.367
			c21.465,0,38.892-17.414,38.892-38.9V38.901C478.792,17.416,461.367,0,439.9,0z M152.384,71.569c0-5.424,4.398-9.82,9.814-9.82
			h253.04c5.435,0,9.832,4.398,9.832,9.82v368.126c0,5.422-4.397,9.817-9.832,9.817H162.196c-5.415,0-9.814-4.397-9.814-9.817
			V71.569H152.384z M225.107,518.49c0,5.207-4.227,9.436-9.435,9.436h-67.067c-5.208,0-9.435-4.229-9.435-9.436v-16.576
			c0-5.207,4.227-9.438,9.435-9.438h67.067c5.208,0,9.435,4.23,9.435,9.438V518.49z M288.737,536.799c-14.7,0-26.6-11.906-26.6-26.6
			c0-14.688,11.899-26.599,26.6-26.599c14.681,0,26.597,11.91,26.597,26.599C315.333,524.893,303.417,536.799,288.737,536.799z
			 M438.283,518.49c0,5.207-4.229,9.436-9.436,9.436h-67.068c-5.205,0-9.434-4.229-9.434-9.436v-16.576
			c0-5.207,4.229-9.438,9.434-9.438h67.068c5.207,0,9.436,4.23,9.436,9.438V518.49L438.283,518.49z"/>
	</g>
</g>
<g>
</g>
<g>
</g>
<g>
</g>
<g>
</g>
<g>
</g>
<g>
</g>
<g>
</g>
<g>
</g>
<g>
</g>
<g>
</g>
<g>
</g>
<g>
</g>
<g>
</g>
<g>
</g>
<g>
</g>
</svg>
