<?xml version="1.0" encoding="iso-8859-1"?>
<!-- Generator: Adobe Illustrator 16.0.0, SVG Export Plug-In . SVG Version: 6.00 Build 0)  -->
<!DOCTYPE svg PUBLIC "-//W3C//DTD SVG 1.1//EN" "http://www.w3.org/Graphics/SVG/1.1/DTD/svg11.dtd">
<svg version="1.1" id="Capa_1" xmlns="http://www.w3.org/2000/svg" xmlns:xlink="http://www.w3.org/1999/xlink" x="0px" y="0px"
	 width="566.373px" height="566.373px" viewBox="0 0 566.373 566.373" style="enable-background:new 0 0 566.373 566.373;"
	 xml:space="preserve">
<g>
	<g>
		<g>
			<path d="M516.916,127.376H155.389V98.268c0-12.717-10.316-23.034-23.034-23.034H76.527c-12.718,0-23.034,10.316-23.034,23.034
				v29.109h-4.037C22.185,127.376,0,149.562,0,176.833v264.849c0,27.272,22.185,49.457,49.458,49.457h467.458
				c27.271,0,49.457-22.185,49.457-49.457V176.833C566.373,149.562,544.188,127.376,516.916,127.376z M528.545,441.681
				c0,6.41-5.217,11.629-11.629,11.629H49.458c-6.41,0-11.628-5.219-11.628-11.629V176.833c0-6.41,5.218-11.628,11.628-11.628
				h467.458c6.412,0,11.629,5.218,11.629,11.628V441.681L528.545,441.681z"/>
			<path d="M283.191,189.716c-65.915,0-119.536,53.621-119.536,119.54c0,65.913,53.622,119.534,119.536,119.534
				c65.917,0,119.536-53.621,119.536-119.534C402.727,243.337,349.107,189.716,283.191,189.716z M283.191,400.417
				c-50.27,0-91.164-40.893-91.164-91.161c0-50.272,40.894-91.167,91.164-91.167s91.166,40.896,91.166,91.167
				C374.355,359.522,333.461,400.417,283.191,400.417z"/>
			<path d="M283.191,250.534c-32.434,0-58.719,26.293-58.719,58.721c0,32.426,26.285,58.719,58.719,58.719
				c32.436,0,58.729-26.295,58.729-58.719C341.92,276.826,315.629,250.534,283.191,250.534z"/>
			<path d="M481.803,184.037c-15.969,0-28.916,12.95-28.916,28.919c0,15.987,12.947,28.925,28.916,28.925
				c15.967,0,28.927-12.939,28.927-28.925C510.729,196.984,497.77,184.037,481.803,184.037z"/>
		</g>
	</g>
</g>
<g>
</g>
<g>
</g>
<g>
</g>
<g>
</g>
<g>
</g>
<g>
</g>
<g>
</g>
<g>
</g>
<g>
</g>
<g>
</g>
<g>
</g>
<g>
</g>
<g>
</g>
<g>
</g>
<g>
</g>
</svg>
