<?xml version="1.0" encoding="UTF-8" standalone="no"?>
<svg width="21px" height="21px" viewBox="0 0 21 21" version="1.1" xmlns="http://www.w3.org/2000/svg" xmlns:xlink="http://www.w3.org/1999/xlink">
    <!-- Generator: sketchtool 41 (35326) - http://www.bohemiancoding.com/sketch -->
    <title>5D4BDE14-39E2-4750-AC7F-40E94D9C6147</title>
    <desc>Created with sketchtool.</desc>
    <defs></defs>
    <g id="Page-1" stroke="none" stroke-width="1" fill="none" fill-rule="evenodd">
        <g id="Artboard-Copy-16" transform="translate(-862.000000, -3884.000000)" fill="#FFFFFF">
            <g id="Group-18" transform="translate(0.000000, 3590.000000)">
                <g id="Group-11" transform="translate(862.000000, 294.000000)">
                    <path d="M10.500021,0 C7.64837106,0 7.29080012,0.01208725 6.17086356,0.0631868125 C5.05326106,0.114160813 4.28997844,0.291675562 3.622101,0.551257438 C2.93163325,0.819550375 2.34607363,1.17857994 1.762306,1.762306 C1.17857994,2.34607363 0.819550375,2.93163325 0.551257438,3.622101 C0.291675563,4.28997844 0.114160813,5.05326106 0.0631868125,6.17086356 C0.01208725,7.29080012 0,7.64837106 0,10.500021 C0,13.3516289 0.01208725,13.7091999 0.0631868125,14.8291364 C0.114160813,15.9467389 0.291675563,16.7100216 0.551257438,17.377899 C0.819550375,18.0683667 1.17857994,18.6539264 1.762306,19.237694 C2.34607363,19.8214201 2.93163325,20.1804496 3.622101,20.4487846 C4.28997844,20.7083244 5.05326106,20.8858392 6.17086356,20.9368132 C7.29080012,20.9879127 7.64837106,21 10.500021,21 C13.3516289,21 13.7091999,20.9879127 14.8291364,20.9368132 C15.9467389,20.8858392 16.7100216,20.7083244 17.377899,20.4487846 C18.0683668,20.1804496 18.6539264,19.8214201 19.237694,19.237694 C19.8214201,18.6539264 20.1804496,18.0683667 20.4487846,17.377899 C20.7083244,16.7100216 20.8858392,15.9467389 20.9368132,14.8291364 C20.9879127,13.7091999 21,13.3516289 21,10.500021 C21,7.64837106 20.9879127,7.29080012 20.9368132,6.17086356 C20.8858392,5.05326106 20.7083244,4.28997844 20.4487846,3.622101 C20.1804496,2.93163325 19.8214201,2.34607363 19.237694,1.762306 C18.6539264,1.17857994 18.0683668,0.819550375 17.377899,0.551257438 C16.7100216,0.291675562 15.9467389,0.114160813 14.8291364,0.0631868125 C13.7091999,0.01208725 13.3516289,0 10.500021,0 L10.500021,0 Z M10.500021,1.89188869 C13.3036137,1.89188869 13.6357182,1.90260044 14.7429012,1.95311637 C15.7666407,1.99979762 16.3226079,2.17085137 16.6925994,2.31464669 C17.1827123,2.50512369 17.5324896,2.73265387 17.8998969,3.10010312 C18.2673461,3.46751037 18.4948763,3.81728769 18.6853533,4.30740056 C18.8291486,4.67739212 19.0002024,5.23335925 19.0468836,6.25709875 C19.0973996,7.36428175 19.1081113,7.69638625 19.1081113,10.500021 C19.1081113,13.3036137 19.0973996,13.6357182 19.0468836,14.7429012 C19.0002024,15.7666407 18.8291486,16.3226079 18.6853533,16.6925994 C18.4948763,17.1827123 18.2673461,17.5324896 17.8998969,17.8998969 C17.5324896,18.2673461 17.1827123,18.4948763 16.6925994,18.6853533 C16.3226079,18.8291486 15.7666407,19.0002024 14.7429012,19.0468836 C13.6358849,19.0973996 13.303822,19.1081113 10.500021,19.1081113 C7.696178,19.1081113 7.36415662,19.0973996 6.25709875,19.0468836 C5.23335925,19.0002024 4.67739212,18.8291486 4.30740056,18.6853533 C3.81728769,18.4948763 3.46751037,18.2673461 3.10010312,17.8998969 C2.73269544,17.5324896 2.50512369,17.1827123 2.31464669,16.6925994 C2.17085137,16.3226079 1.99979762,15.7666407 1.95311637,14.7429012 C1.90260044,13.6357182 1.89188869,13.3036137 1.89188869,10.500021 C1.89188869,7.69638625 1.90260044,7.36428175 1.95311637,6.25709875 C1.99979762,5.23335925 2.17085137,4.67739212 2.31464669,4.30740056 C2.50512369,3.81728769 2.73265387,3.46751037 3.10010312,3.10010312 C3.46751037,2.73265387 3.81728769,2.50512369 4.30740056,2.31464669 C4.67739212,2.17085137 5.23335925,1.99979762 6.25709875,1.95311637 C7.36428175,1.90260044 7.69638625,1.89188869 10.500021,1.89188869 L10.500021,1.89188869 Z M10.500021,5.10811131 C7.522123,5.10811131 5.10811131,7.522123 5.10811131,10.500021 C5.10811131,13.477877 7.522123,15.8918887 10.500021,15.8918887 C13.477877,15.8918887 15.8918887,13.477877 15.8918887,10.500021 C15.8918887,7.522123 13.477877,5.10811131 10.500021,5.10811131 L10.500021,5.10811131 Z M10.500021,14 C8.56699419,14 7,12.4330058 7,10.500021 C7,8.56699419 8.56699419,7 10.500021,7 C12.4330058,7 14,8.56699419 14,10.500021 C14,12.4330058 12.4330058,14 10.500021,14 L10.500021,14 Z M17.3649367,4.895086 C17.3649367,5.59097219 16.8008002,6.15506675 16.104914,6.15506675 C15.4090694,6.15506675 14.8449332,5.59097219 14.8449332,4.895086 C14.8449332,4.19919981 15.4090694,3.63506325 16.104914,3.63506325 C16.8008002,3.63506325 17.3649367,4.19919981 17.3649367,4.895086 L17.3649367,4.895086 Z" id="Instagram"></path>
                </g>
            </g>
        </g>
    </g>
</svg>