<?xml version="1.0" encoding="UTF-8" standalone="no"?>
<svg width="23px" height="18px" viewBox="0 0 23 18" version="1.1" xmlns="http://www.w3.org/2000/svg" xmlns:xlink="http://www.w3.org/1999/xlink">
    <!-- Generator: sketchtool 41 (35326) - http://www.bohemiancoding.com/sketch -->
    <title>0E3B56EE-53DF-47F5-B371-43A727A4E0FE</title>
    <desc>Created with sketchtool.</desc>
    <defs></defs>
    <g id="Page-1" stroke="none" stroke-width="1" fill="none" fill-rule="evenodd">
        <g id="Artboard-Copy-16" transform="translate(-936.000000, -3887.000000)" fill="#FFFFFF">
            <g id="Group-18" transform="translate(0.000000, 3590.000000)">
                <path d="M959,299.131067 C958.153929,299.491782 957.244114,299.736689 956.289943,299.845852 C957.264157,299.28358 958.012314,298.393816 958.364871,297.331921 C957.452757,297.85306 956.443057,298.231178 955.3683,298.434634 C954.507443,297.551514 953.280886,297 951.923886,297 C949.317986,297 947.204943,299.03456 947.204943,301.543745 C947.204943,301.900346 947.246671,302.246823 947.327171,302.579377 C943.405671,302.390159 939.928729,300.580888 937.601457,297.831227 C937.195014,298.502347 936.962386,299.28358 936.962386,300.116072 C936.962386,301.69246 937.795643,303.083745 939.061957,303.898202 C938.288171,303.874787 937.560386,303.670065 936.9246,303.330234 C936.923943,303.348902 936.923943,303.367887 936.923943,303.387189 C936.923943,305.589133 938.550371,307.425932 940.709086,307.842969 C940.313157,307.946754 939.8962,308.002443 939.4661,308.002443 C939.161843,308.002443 938.866457,307.973966 938.5783,307.920808 C939.1786,309.725966 940.921343,311.039728 942.986086,311.076432 C941.371157,312.295586 939.336643,313.021762 937.126014,313.021762 C936.744871,313.021762 936.369314,313.000246 936,312.958163 C938.0884,314.247877 940.568786,315 943.2335,315 C951.912714,315 956.659257,308.075852 956.659257,302.070895 C956.659257,301.873767 956.654657,301.677905 956.645457,301.482993 C957.567429,300.842249 958.3675,300.042031 959,299.131067" id="Fill-94"></path>
            </g>
        </g>
    </g>
</svg>