<?xml version="1.0" encoding="UTF-8" standalone="no"?>
<svg width="152px" height="140px" viewBox="0 0 152 140" version="1.1" xmlns="http://www.w3.org/2000/svg" xmlns:xlink="http://www.w3.org/1999/xlink">
    <!-- Generator: sketchtool 41 (35326) - http://www.bohemiancoding.com/sketch -->
    <title>F1E4A0BD-6885-4771-B571-BDD20498FD6C</title>
    <desc>Created with sketchtool.</desc>
    <defs></defs>
    <g id="Page-1" stroke="none" stroke-width="1" fill="none" fill-rule="evenodd">
        <g id="Artboard-Copy-16" transform="translate(-477.000000, -946.000000)" fill="#FF0050">
            <g id="Group-2" transform="translate(477.203822, 946.000000)">
                <ellipse id="Oval" transform="translate(57.070064, 8.471338) scale(-1, 1) translate(-57.070064, -8.471338) " cx="57.0700637" cy="8.47133758" rx="8.91719745" ry="8.47133758"></ellipse>
                <path d="M37.5169485,58.7336781 C37.5169485,58.7336781 35.5515952,55.9932438 37.2554786,53.1860532 C38.9610936,50.3754392 38.2996266,51.0789486 41.9931056,47.9876155 C45.6883161,44.8962825 69.1340287,21.5794836 69.1340287,21.5794836 C69.1340287,21.5794836 71.2448355,19.0410301 77.0958741,19.7394044 C81.9252753,20.3145361 84.365084,27.6902582 85.7624761,35.3449877 C87.3243693,43.9257477 89.1719745,57.6604412 89.1719745,58.3827792 C89.1719745,61.8951909 87.1875737,64.0142774 83.5598952,65.7567896 C79.8248581,67.5540763 70.4154044,70.4622573 66.1522328,72.1482833 C61.8890611,73.8343094 57.1999186,74.255388 58.0518603,76.5028522 C58.903802,78.7486046 66.1539644,96.5742649 67.5011405,99.6108235 C68.779053,102.48477 69.3487457,104.665478 69.3487457,104.665478 C67.3695397,106.632223 65.0145789,109.090227 64.1609056,110.213103 C63.3106955,111.337691 57.90987,115.411541 56.7722162,111.75877 C55.6345623,108.105998 57.3401773,106.983122 57.3401773,106.983122 L46.0484866,80.1761637 C46.4813838,81.1621039 44.4935198,77.0180743 43.2710181,73.2694479 C43.2710181,73.2694479 40.8554517,68.63416 47.2502092,66.1059768 C53.6744038,63.5658116 64.820641,58.9613344 65.8214993,58.2971942 C66.858721,57.6090901 68.6353311,56.9021574 68.6353311,56.9021574 C68.6353311,56.9021574 68.1089281,54.9918984 66.4344818,51.9176824 C64.7894724,48.8982408 63.9617729,46.2416799 63.2362372,46.1578065 C61.068288,45.9078981 57.4648517,49.7215692 56.9124748,50.2316563 C54.7081623,52.2720046 50.5194489,56.2705395 48.8138339,58.2372846 C47.1099505,60.202318 44.5506623,61.7496962 44.5506623,61.7496962 L39.8667145,60.4642084 L37.5169485,58.7336781 L37.5169485,58.7336781 Z" id="Shape" transform="translate(62.866242, 66.433121) scale(-1, 1) translate(-62.866242, -66.433121) "></path>
                <path d="M125.176079,87.2930561 C121.195615,87.2930561 117.417692,88.1819527 114.029406,89.7627843 L108.885183,80.6700058 C108.885183,80.6700058 108.255244,80.048292 109.64729,77.8782881 C110.491787,76.561214 111.758533,73.0826996 113.026995,72.9765115 C114.295457,72.8703235 116.363788,73.2762358 117.043505,72.9765115 C118.356595,72.3959028 118.871532,70.4348496 118.943623,68.4429676 C119.036312,65.9064438 118.734215,64.6578781 118.414954,64.4369385 C117.445156,63.7655561 116.67275,63.606274 115.986167,63.8049484 C114.38128,64.2690929 110.387083,65.9595378 110.387083,65.9595378 C108.69809,66.4408094 104.643817,68.1432433 103.625958,68.4960616 C102.596084,68.8523054 101.197171,69.6024724 100.562082,70.1299872 C99.9287093,70.6575019 100.668502,72.2383334 101.090751,72.3445215 C101.514716,72.4489968 101.410012,72.6596601 102.570337,72.2383334 C103.734095,71.8170067 104.84121,71.5892163 104.472172,72.7658482 C104.049923,74.108613 103.636257,75.3160737 103.026915,76.5988936 C102.393542,77.9313822 101.089034,77.5785639 101.089034,77.5785639 L69.9748135,76.9260213 C69.9748135,76.9260213 65.2785864,76.9106069 63.8316129,76.8420985 C62.3348622,76.7718774 57.0670548,76.6451368 55.2750735,76.7718774 C53.3045805,76.9123196 53.6650365,77.110994 54.270946,75.7956325 C54.9214833,74.3843593 54.852825,73.2659596 54.7120755,71.1576133 C54.571326,69.0509797 53.5139883,67.1772748 52.8102408,65.9595378 C52.1064933,64.7383755 53.0934563,64.5859442 53.0934563,64.5859442 L55.9101626,64.5551155 C55.9101626,64.5551155 61.4749171,64.9473261 63.1656275,64.8051711 C64.8546215,64.6647289 68.3373133,65.125448 69.451294,64.7006958 C70.5824394,64.2690929 69.7276437,61.4208558 69.7276437,58.8535032 C69.7276437,58.8535032 53.6049605,59.0573157 52.3914252,59.1652164 C51.3409534,59.2594155 50.0965219,59.9153835 48.9413461,61.0098053 C47.8582616,62.0391442 47.319294,63.6627934 47.1768281,65.9578251 C47.0360786,68.2511441 48.5345458,69.2342397 48.8692549,71.1559006 C49.1353058,72.6887762 49.2417262,73.5245788 49.2417262,73.5245788 C49.2417262,73.5245788 48.8126118,74.1034749 48.0350567,75.603809 L48.0350567,75.603809 L43.9378732,81.1135977 L39.1472409,88.9629486 L38.4623745,90.2063762 C34.8475155,88.3463729 30.7520484,87.2913434 26.4128445,87.2913434 C11.850421,87.2913434 -3.41060513e-13,99.1124693 -3.41060513e-13,113.644815 C-3.41060513e-13,128.177161 11.8487045,140 26.4128445,140 C40.9769844,140 52.8239725,128.177161 52.8239725,113.644815 C52.8239725,105.399828 49.0065715,98.0283237 43.043599,93.1916301 L43.0916598,93.1111327 L46.8953291,87.5585262 C46.8953291,87.5585262 68.1725334,105.915354 73.2755608,109.965914 C73.1056316,110.909617 73.1966038,112.117078 73.4128774,113.644815 C74.6796229,122.626268 77.6954383,123.352457 99.6128812,121.362288 C99.7175851,121.352011 99.8154231,121.34516 99.9184106,121.334884 C103.224307,132.126671 113.296479,139.998287 125.179512,139.998287 C139.743652,139.998287 151.592357,128.175449 151.592357,113.643103 C151.592357,99.1107566 139.741936,87.2930561 125.176079,87.2930561 L125.176079,87.2930561 Z M48.1740897,113.646528 C48.1740897,125.621798 38.4108808,135.363693 26.411128,135.363693 C14.4096588,135.363693 4.64644983,125.621798 4.64644983,113.646528 C4.64644983,101.672971 14.4096588,91.9310754 26.411128,91.9310754 C29.9384477,91.9310754 33.2683748,92.7771542 36.2189648,94.2706375 L35.6954454,95.219479 L29.2861939,105.252535 L26.411128,109.133537 C26.411128,109.133537 23.9686093,110.063538 23.2288162,111.171662 C22.3894686,112.428791 21.0986928,114.002772 22.1199848,115.951836 C22.8923906,117.423054 23.5686748,118.635653 26.411128,118.93709 C28.9377531,119.20256 30.0585997,117.847806 30.9048131,116.162499 C31.7510266,114.47548 31.4695276,112.802162 31.4695276,112.802162 L31.8214013,111.312104 L35.9065696,105.252535 L40.6474246,97.240477 C45.250963,101.227666 48.1740897,107.10055 48.1740897,113.646528 L48.1740897,113.646528 Z M99.4463848,107.729114 C88.9777119,107.175909 82.5135339,106.727179 78.6154594,106.982373 C78.7699406,106.836792 78.8677786,106.744306 78.8677786,106.744306 C78.8677786,106.744306 53.6530213,84.4670843 53.2307728,84.3249294 C52.8085244,84.1861998 51.3117736,81.1170231 51.3117736,81.1153104 L51.4250598,80.9491775 L53.2290564,84.3249294 L53.7937708,83.3058668 L97.5857452,83.7237681 L97.6217908,83.6621105 C97.9616493,83.9361441 98.4680042,84.2050396 97.9564999,85.3097377 C97.1120029,87.1371995 96.6331114,87.4883051 95.3389026,89.6120658 C94.2060408,91.4703563 93.2997514,92.4859935 93.1658677,93.9537861 C93.1023588,94.65771 94.7432919,97.252466 95.5191306,98.1242355 C96.2778047,98.9754525 96.6519924,99.3316962 97.9204543,97.0143993 C99.1871998,94.6953897 101.617703,90.7047749 102.568621,89.3705736 C103.624242,87.890792 104.04649,86.8939947 104.575159,87.3153214 C105.103828,87.7366481 106.583414,90.0573704 107.216787,91.1106872 C107.340372,91.3162124 107.786651,92.1280371 108.42174,93.2909673 C103.994997,96.9236256 100.776639,101.96927 99.4463848,107.729114 L99.4463848,107.729114 Z M110.687463,97.4631293 C113.449243,102.561868 116.840963,108.847514 116.870143,108.849227 C116.870143,108.849227 116.870143,108.850939 116.871859,108.850939 C113.100802,108.422762 108.734135,108.194971 104.175225,107.967181 C105.292638,103.854964 107.592691,100.224018 110.687463,97.4631293 L110.687463,97.4631293 Z M125.176079,135.361981 C115.764744,135.361981 107.730008,129.365782 104.702177,121.000906 C120.756202,120.16339 129.757304,122.360798 129.086169,114.540563 C128.919673,112.612051 127.271874,111.301828 124.621664,110.385528 C124.501512,110.128621 124.335015,109.791217 124.120458,109.3442 C122.640872,106.288725 118.308534,97.3278252 118.308534,97.3278252 L116.322593,93.8167693 C119.027729,92.6075959 122.022947,91.9293627 125.174363,91.9293627 C137.175832,91.9293627 146.939041,101.671258 146.939041,113.644815 C146.940757,125.621798 137.177549,135.361981 125.176079,135.361981 L125.176079,135.361981 Z" id="Shape" transform="translate(75.796178, 99.426752) scale(-1, 1) translate(-75.796178, -99.426752) "></path>
            </g>
        </g>
    </g>
</svg>