<?xml version="1.0" encoding="UTF-8" standalone="no"?>
<svg width="140px" height="140px" viewBox="0 0 140 140" version="1.1" xmlns="http://www.w3.org/2000/svg" xmlns:xlink="http://www.w3.org/1999/xlink">
    <!-- Generator: sketchtool 41 (35326) - http://www.bohemiancoding.com/sketch -->
    <title>132775EE-7E0D-4404-A1F7-1A03FA90E180</title>
    <desc>Created with sketchtool.</desc>
    <defs></defs>
    <g id="Page-1" stroke="none" stroke-width="1" fill="none" fill-rule="evenodd">
        <g id="Artboard-Copy-16" transform="translate(-806.000000, -946.000000)" fill="#FF0755">
            <g id="noun_547568_cc" transform="translate(806.000000, 946.000000)">
                <g id="Group">
                    <path d="M70,0.0416666667 C68.6964286,0.0416666667 67.2480159,0.910714286 66.9583333,2.50396825 L53.922619,66.8134921 C51.8948413,76.952381 59.5714286,86.5119048 70,86.5119048 C80.4285714,86.5119048 88.1051587,76.952381 86.077381,66.8134921 L73.0416667,2.50396825 C72.7519841,0.910714286 71.4484127,0.0416666667 70,0.0416666667 L70,0.0416666667 Z M75.6488095,70.1448413 C75.6488095,73.1865079 73.1865079,75.7936508 70,75.7936508 C66.8134921,75.7936508 64.3511905,73.3313492 64.3511905,70.1448413 C64.3511905,67.1031746 66.8134921,64.4960317 70,64.4960317 C73.1865079,64.4960317 75.6488095,67.1031746 75.6488095,70.1448413 L75.6488095,70.1448413 Z M52.1845238,2.64880952 L47.6944444,24.8095238 C31.0376984,33.0654762 19.4503968,50.156746 19.4503968,70 C19.4503968,97.9543651 42.0456349,120.549603 70,120.549603 C97.9543651,120.549603 120.549603,97.9543651 120.549603,70.1448413 L139.813492,70.1448413 C139.813492,108.672619 108.527778,139.958333 70,139.958333 C31.4722222,139.958333 0.186507937,108.672619 0.186507937,70.1448413 C0.186507937,37.7003968 22.202381,10.6150794 52.1845238,2.64880952 Z" id="Shape"></path>
                </g>
            </g>
        </g>
    </g>
</svg>