<?xml version="1.0" encoding="UTF-8" standalone="no"?>
<svg width="142px" height="140px" viewBox="0 0 142 140" version="1.1" xmlns="http://www.w3.org/2000/svg" xmlns:xlink="http://www.w3.org/1999/xlink">
    <!-- Generator: sketchtool 41 (35326) - http://www.bohemiancoding.com/sketch -->
    <title>CE0FA4B6-A628-491B-920B-58FBD3A4826B</title>
    <desc>Created with sketchtool.</desc>
    <defs></defs>
    <g id="Page-1" stroke="none" stroke-width="1" fill="none" fill-rule="evenodd">
        <g id="Artboard-Copy-16" transform="translate(-146.000000, -946.000000)" fill="#FF0755">
            <path d="M146.922822,959.120176 L146.922822,1060.84013 L146.922822,1074.57773 C146.922822,1080.75193 151.862183,1085.84564 157.882029,1085.84564 L177.022051,1085.84564 L194.927233,1085.84564 L220.39581,1085.84564 C218.23484,1082.44983 216.845645,1078.59096 216.845645,1074.26902 L216.845645,1072.2624 L216.845645,1068.40353 L209.436604,1068.40353 L158.808159,1068.40353 L158.808159,961.126792 L236.603087,961.126792 L236.603087,968.844542 L237.374862,968.844542 L248.334068,968.844542 L248.334068,960.663727 L248.334068,958.811466 L248.334068,957.267916 C248.334068,952.637266 245.555678,948.624035 241.696803,946.92613 C240.461963,946.30871 238.918412,946 237.374862,946 L194.772878,946 L157.573319,946 C156.029768,946 154.640573,946.30871 153.251378,946.92613 C149.701213,948.46968 146.922822,952.482911 146.922822,957.113561 L146.922822,959.120176 Z M197.551268,1073.03418 C200.020948,1073.03418 201.873208,1075.04079 201.873208,1077.35612 C201.873208,1079.8258 199.866593,1081.67806 197.551268,1081.67806 C195.081588,1081.67806 193.229327,1079.67144 193.229327,1077.35612 C193.074972,1075.04079 195.081588,1073.03418 197.551268,1073.03418 L197.551268,1073.03418 Z M287.077178,1074.42337 L287.077178,1072.41676 L287.077178,1050.80706 L287.077178,999.561191 L287.077178,993.07828 L287.077178,989.68247 C287.077178,983.353914 281.983462,978.105843 275.809261,978.105843 L237.529217,978.105843 C231.355017,978.105843 226.261301,983.353914 226.261301,989.68247 L226.261301,993.07828 L226.261301,1072.41676 L226.261301,1074.42337 C226.261301,1080.75193 231.355017,1086 237.529217,1086 L275.963616,1086 C282.137817,1086 287.077178,1080.75193 287.077178,1074.42337 L287.077178,1074.42337 Z M256.206174,1082.75854 C253.582139,1082.75854 251.575524,1080.75193 251.575524,1078.12789 C251.575524,1075.50386 253.582139,1073.49724 256.206174,1073.49724 C258.830209,1073.49724 260.836825,1075.50386 260.836825,1078.12789 C260.836825,1080.75193 258.675854,1082.75854 256.206174,1082.75854 L256.206174,1082.75854 Z M275.500551,1070.25579 L237.837927,1070.25579 L237.837927,993.6957 L275.654906,993.6957 L275.654906,1070.25579 L275.500551,1070.25579 Z" id="Shape"></path>
        </g>
    </g>
</svg>