<?xml version="1.0" encoding="UTF-8" standalone="no"?>
<svg width="149px" height="44px" viewBox="0 0 149 44" version="1.1" xmlns="http://www.w3.org/2000/svg" xmlns:xlink="http://www.w3.org/1999/xlink">
    <!-- Generator: sketchtool 41 (35326) - http://www.bohemiancoding.com/sketch -->
    <title>A266CD21-3D7C-4533-A59D-9088ADC3124A</title>
    <desc>Created with sketchtool.</desc>
    <defs></defs>
    <g id="Page-1" stroke="none" stroke-width="1" fill="none" fill-rule="evenodd">
        <g id="Artboard-Copy-16" transform="translate(-862.000000, -3786.000000)">
            <g id="Group-18" transform="translate(0.000000, 3590.000000)">
                <g id="Group-12" transform="translate(862.000000, 196.000000)">
                    <path d="M62.8491109,29.0492476 L60.4409338,29.0492476 C60.1469765,29.0492476 60,28.9124501 60,28.6388509 L60,16.3269494 C60,16.2129497 60.0395706,16.1160515 60.118713,16.0362517 C60.1978553,15.9564519 60.3052612,15.9165527 60.4409338,15.9165527 L62.8491109,15.9165527 C62.9621714,15.9165527 63.0582714,15.9564519 63.1374138,16.0362517 C63.2165561,16.1160515 63.2561267,16.2129497 63.2561267,16.3269494 L63.2561267,16.8057456 C63.7309809,16.5321464 64.2397456,16.3155503 64.7824361,16.1559508 C65.3251266,15.9963512 65.8904207,15.9165527 66.4783354,15.9165527 C66.7496807,15.9393526 66.8853513,16.0989497 66.8853513,16.3953488 L66.8853513,18.7893297 C66.8401271,19.0857288 66.7044565,19.2339261 66.4783354,19.2339261 C66.0487055,19.2339261 65.6416937,19.3137247 65.2572879,19.4733242 C64.8728822,19.6329237 64.5337057,19.8609196 64.2397483,20.1573187 C63.945791,20.4537179 63.7083674,20.7957117 63.5274706,21.1833105 C63.3465738,21.5709094 63.2561267,21.9927018 63.2561267,22.4487004 L63.2561267,28.6388509 C63.2561267,28.9124501 63.1204561,29.0492476 62.8491109,29.0492476 L62.8491109,29.0492476 Z M79.9164533,26.9630643 C79.3059265,27.6242623 78.588003,28.1486529 77.7626612,28.5362517 C76.9373194,28.9238505 76.0498076,29.1176471 75.1000992,29.1176471 C74.1956151,29.1176471 73.3533268,28.9466501 72.5732092,28.6046512 C71.7930916,28.2626522 71.1090857,27.7895607 70.521171,27.1853625 C69.9332563,26.5811643 69.4697151,25.8800769 69.1305336,25.0820793 C68.791352,24.2840817 68.6217638,23.4176973 68.6217638,22.4829001 C68.6217638,21.5709029 68.7687403,20.7102184 69.0626976,19.9008208 C69.356655,19.0914232 69.7693197,18.3846359 70.3007041,17.7804378 C70.8320886,17.1762396 71.4708709,16.7031481 72.2170704,16.3611491 C72.9632698,16.0191501 73.7885992,15.8481532 74.6930834,15.8481532 C76.0950338,15.8481532 77.2934574,16.2414461 78.28839,17.0280438 C79.2833226,17.8146414 79.9842873,18.8235233 80.3913051,20.0547196 C80.5269778,20.4423184 80.6343837,20.90971 80.713526,21.4569083 C80.7926684,22.0041067 80.7983213,22.6994942 80.730485,23.5430917 C80.730485,23.6570913 80.6909144,23.7539896 80.6117721,23.8337893 C80.5326297,23.9135891 80.4365297,23.9534884 80.3234692,23.9534884 L72.1831524,23.9534884 C72.4544976,24.5006867 72.8445506,24.9452787 73.3533229,25.2872777 C73.8620953,25.6292767 74.4443482,25.8002736 75.1000992,25.8002736 C75.8462987,25.8002736 76.5246516,25.5608779 77.1351784,25.0820793 L77.5421943,24.6716826 C77.7230911,24.4892832 77.926597,24.4892832 78.152718,24.6716826 L79.9164533,26.3474692 C80.0747381,26.5298687 80.0747381,26.735065 79.9164533,26.9630643 L79.9164533,26.9630643 Z M74.6930834,19.1313269 C74.0599445,19.1313269 73.528568,19.296624 73.098938,19.627223 C72.669308,19.957822 72.3527433,20.3853143 72.1492344,20.9097127 L77.2030144,20.9097127 C76.9995055,20.3853143 76.6772878,19.957822 76.2363518,19.627223 C75.7954158,19.296624 75.2809981,19.1313269 74.6930834,19.1313269 L74.6930834,19.1313269 Z M86.163958,35 L83.755781,35 C83.4618236,35 83.3148472,34.8518027 83.3148472,34.5554036 L83.3148472,16.3269494 C83.3148472,16.2129497 83.3544178,16.1160515 83.4335601,16.0362517 C83.5127025,15.9564519 83.6201084,15.9165527 83.755781,15.9165527 L86.163958,15.9165527 C86.2770186,15.9165527 86.3731186,15.9564519 86.4522609,16.0362517 C86.5314033,16.1160515 86.5709739,16.2129497 86.5709739,16.3269494 L86.5709739,16.7031464 C87.5659065,16.1331481 88.6399653,15.8481532 89.7931826,15.8481532 C90.6976668,15.8481532 91.545608,16.0191501 92.3370316,16.3611491 C93.1284553,16.7031481 93.8181141,17.1762396 94.4060288,17.7804378 C94.9939435,18.3846359 95.4574847,19.0914232 95.7966663,19.9008208 C96.1358478,20.7102184 96.3054361,21.5709029 96.3054361,22.4829001 C96.3054361,23.4176973 96.1358478,24.2840817 95.7966663,25.0820793 C95.4574847,25.8800769 94.9939435,26.5811643 94.4060288,27.1853625 C93.8181141,27.7895607 93.1284553,28.2626522 92.3370316,28.6046512 C91.545608,28.9466501 90.6976668,29.1176471 89.7931826,29.1176471 C88.572129,29.1176471 87.4980702,28.8326522 86.5709739,28.2626539 L86.5709739,34.5554036 C86.5709739,34.8518027 86.4353033,35 86.163958,35 L86.163958,35 Z M86.5709739,22.4829001 C86.5709739,22.9388988 86.655768,23.3663911 86.8253588,23.7653899 C86.9949496,24.1643887 87.2267202,24.5177823 87.5206775,24.8255814 C87.8146349,25.1333805 88.1538113,25.3727762 88.5382171,25.5437756 C88.9226229,25.7147751 89.3409405,25.8002736 89.7931826,25.8002736 C90.2454247,25.8002736 90.6693953,25.7147751 91.0651071,25.5437756 C91.4608189,25.3727762 91.8113013,25.1333805 92.1165647,24.8255814 C92.4218281,24.5177823 92.6592516,24.1643887 92.8288424,23.7653899 C92.9984332,23.3663911 93.0832273,22.9388988 93.0832273,22.4829001 C93.0832273,22.0269015 92.9984332,21.5937093 92.8288424,21.1833105 C92.6592516,20.7729118 92.4218281,20.4138182 92.1165647,20.1060192 C91.8113013,19.7982201 91.4608189,19.5588244 91.0651071,19.3878249 C90.6693953,19.2168254 90.2454247,19.1313269 89.7931826,19.1313269 C89.3635526,19.1313269 88.9565409,19.2168254 88.5721351,19.3878249 C88.1877293,19.5588244 87.8485529,19.7868203 87.5545955,20.0718194 C87.2606381,20.3568186 87.0232146,20.6988124 86.8423178,21.0978112 C86.6614209,21.49681 86.5709739,21.9129025 86.5709739,22.3461012 L86.5709739,22.4829001 Z M110.998519,29.0492476 L108.590342,29.0492476 C108.318997,29.0492476 108.183327,28.9124501 108.183327,28.6388509 L108.183327,28.2626539 C107.165782,28.8326522 106.069111,29.1176471 104.893282,29.1176471 C103.988798,29.1176471 103.146509,28.9466501 102.366392,28.6046512 C101.586274,28.2626522 100.902268,27.7895607 100.314354,27.1853625 C99.7264389,26.5811643 99.2628978,25.8800769 98.9237162,25.0820793 C98.5845346,24.2840817 98.4149464,23.4176973 98.4149464,22.4829001 C98.4149464,21.5709029 98.5845346,20.7102184 98.9237162,19.9008208 C99.2628978,19.0914232 99.7264389,18.3846359 100.314354,17.7804378 C100.902268,17.1762396 101.586274,16.7031481 102.366392,16.3611491 C103.146509,16.0191501 103.988798,15.8481532 104.893282,15.8481532 C106.091723,15.8481532 107.188394,16.1559477 108.183327,16.7715458 L108.183327,16.3269494 C108.183327,16.2129497 108.217244,16.1160515 108.285081,16.0362517 C108.352917,15.9564519 108.45467,15.9165527 108.590342,15.9165527 L110.998519,15.9165527 C111.11158,15.9165527 111.20768,15.9564519 111.286822,16.0362517 C111.365965,16.1160515 111.405535,16.2129497 111.405535,16.3269494 L111.405535,28.6388509 C111.405535,28.9124501 111.269865,29.0492476 110.998519,29.0492476 L110.998519,29.0492476 Z M101.671073,22.4829001 C101.671073,23.3948974 101.981985,24.1757833 102.603818,24.8255814 C103.225651,25.4753794 103.988798,25.8002736 104.893282,25.8002736 C105.322912,25.8002736 105.729924,25.7147751 106.114329,25.5437756 C106.498735,25.3727762 106.843565,25.1447803 107.148828,24.8597811 C107.454091,24.574782 107.697168,24.238488 107.878065,23.8508892 C108.058962,23.4632904 108.160714,23.0528977 108.183327,22.619699 L108.183327,22.4829001 C108.183327,22.0269015 108.098532,21.5937093 107.928942,21.1833105 C107.759351,20.7729118 107.521927,20.4138182 107.216664,20.1060192 C106.911401,19.7982201 106.560918,19.5588244 106.165206,19.3878249 C105.769495,19.2168254 105.345524,19.1313269 104.893282,19.1313269 C104.44104,19.1313269 104.017069,19.2168254 103.621357,19.3878249 C103.225646,19.5588244 102.886469,19.7982201 102.603818,20.1060192 C102.321166,20.4138182 102.095049,20.7729118 101.925458,21.1833105 C101.755867,21.5937093 101.671073,22.0269015 101.671073,22.4829001 L101.671073,22.4829001 Z M117.585204,29.0492476 L115.177027,29.0492476 C114.905682,29.0492476 114.770011,28.9124501 114.770011,28.6388509 L114.770011,16.3269494 C114.770011,16.2129497 114.809582,16.1160515 114.888724,16.0362517 C114.967866,15.9564519 115.063966,15.9165527 115.177027,15.9165527 L117.585204,15.9165527 C117.698265,15.9165527 117.794365,15.9564519 117.873507,16.0362517 C117.952649,16.1160515 117.99222,16.2129497 117.99222,16.3269494 L117.99222,28.6388509 C117.99222,28.9124501 117.856549,29.0492476 117.585204,29.0492476 L117.585204,29.0492476 Z M117.585204,14.5143639 L115.177027,14.5143639 C114.905682,14.5143639 114.770011,14.3661666 114.770011,14.0697674 L114.770011,11.8125855 C114.770011,11.6985858 114.809582,11.6016876 114.888724,11.5218878 C114.967866,11.4420881 115.063966,11.4021888 115.177027,11.4021888 L117.585204,11.4021888 C117.698265,11.4021888 117.794365,11.4420881 117.873507,11.5218878 C117.952649,11.6016876 117.99222,11.6985858 117.99222,11.8125855 L117.99222,14.0697674 C117.99222,14.3661666 117.856549,14.5143639 117.585204,14.5143639 L117.585204,14.5143639 Z M124.205807,29.0492476 L121.79763,29.0492476 C121.503672,29.0492476 121.356696,28.9124501 121.356696,28.6388509 L121.356696,16.3269494 C121.356696,16.2129497 121.396266,16.1160515 121.475409,16.0362517 C121.554551,15.9564519 121.661957,15.9165527 121.79763,15.9165527 L124.205807,15.9165527 C124.318867,15.9165527 124.414967,15.9564519 124.494109,16.0362517 C124.573252,16.1160515 124.612822,16.2129497 124.612822,16.3269494 L124.612822,16.8057456 C125.087677,16.5321464 125.596441,16.3155503 126.139132,16.1559508 C126.681822,15.9963512 127.247116,15.9165527 127.835031,15.9165527 C128.106376,15.9393526 128.242047,16.0989497 128.242047,16.3953488 L128.242047,18.7893297 C128.196823,19.0857288 128.061152,19.2339261 127.835031,19.2339261 C127.405401,19.2339261 126.998389,19.3137247 126.613984,19.4733242 C126.229578,19.6329237 125.890401,19.8609196 125.596444,20.1573187 C125.302487,20.4537179 125.065063,20.7957117 124.884166,21.1833105 C124.703269,21.5709094 124.612822,21.9927018 124.612822,22.4487004 L124.612822,28.6388509 C124.612822,28.9124501 124.477152,29.0492476 124.205807,29.0492476 L124.205807,29.0492476 Z M134.048618,29.0492476 L131.640441,29.0492476 C131.369096,29.0492476 131.233425,28.9124501 131.233425,28.6388509 L131.233425,10.4103967 C131.233425,10.2963971 131.272996,10.1994988 131.352138,10.119699 C131.43128,10.0398993 131.52738,10 131.640441,10 L134.048618,10 C134.161678,10 134.257778,10.0398993 134.336921,10.119699 C134.416063,10.1994988 134.455634,10.2963971 134.455634,10.4103967 L134.455634,28.6388509 C134.455634,28.9124501 134.319963,29.0492476 134.048618,29.0492476 L134.048618,29.0492476 Z M139.787353,35 C139.516008,35 139.436866,34.8518027 139.549927,34.5554036 L141.483252,28.6388509 L137.413094,16.3269494 C137.36787,16.2129497 137.396134,16.1160515 137.497889,16.0362517 C137.599643,15.9564519 137.707049,15.9165527 137.82011,15.9165527 L140.431795,15.9165527 C140.567467,15.9165527 140.663567,15.9564519 140.720097,16.0362517 C140.776628,16.1160515 140.827504,16.2129497 140.872728,16.3269494 L143.179151,23.4404925 L145.553411,16.3269494 C145.598635,16.2129497 145.649511,16.1160515 145.706041,16.0362517 C145.762572,15.9564519 145.847366,15.9165527 145.960426,15.9165527 L148.572111,15.9165527 C148.685172,15.9165527 148.792578,15.9564519 148.894332,16.0362517 C148.996087,16.1160515 149.024351,16.2129497 148.979127,16.3269494 L142.975644,34.5554036 C142.930419,34.6922031 142.851278,34.8005012 142.738218,34.880301 C142.625157,34.9601007 142.512098,35 142.399038,35 L139.787353,35 Z" id="repairly" fill="#FFFFFF"></path>
                    <g id="Group-3">
                        <rect id="Rectangle-2" fill="#FFFFFF" x="0" y="0" width="44" height="44"></rect>
                        <path d="M27.082206,11.3778802 L27.082206,19.764977 L21.5879292,22.6682028 L15.5213319,19.7419355 L15.5213319,11.3548387 C12.1789802,13.3364055 9.93548387,17.0230415 9.93548387,21.2165899 C9.93548387,25.1336406 11.8813736,28.5668203 14.8574402,30.640553 C16.6659729,31.9078341 18.9094693,32.6451613 21.2903226,32.6451613 C23.6711759,32.6451613 25.8917794,31.8847926 27.723205,30.640553 C30.6992716,28.5668203 32.6451613,25.1336406 32.6451613,21.2165899 C32.6451613,17.0230415 30.4245578,13.359447 27.082206,11.3778802 L27.082206,11.3778802" id="Shape" fill="#4A4A4A"></path>
                    </g>
                </g>
            </g>
        </g>
    </g>
</svg>