<?xml version="1.0" encoding="UTF-8" standalone="no"?>
<svg width="16px" height="16px" viewBox="0 0 16 16" version="1.1" xmlns="http://www.w3.org/2000/svg" xmlns:xlink="http://www.w3.org/1999/xlink">
    <!-- Generator: sketchtool 41 (35326) - http://www.bohemiancoding.com/sketch -->
    <title>4F71C4F9-9387-476A-815C-A483393B5B62</title>
    <desc>Created with sketchtool.</desc>
    <defs></defs>
    <g id="Page-1" stroke="none" stroke-width="1" fill="none" fill-rule="evenodd">
        <g id="Artboard-Copy-16" transform="translate(-25.000000, -25.500000)">
            <g id="Group-23" transform="translate(18.000000, 18.000000)">
                <path d="M45.0167864,20.3732143 L43.3121217,20.3732143 C43.1040395,20.3732143 43,20.2771778 43,20.0851019 L43,11.4417318 C43,11.3617002 43.0280106,11.2936744 43.0840328,11.2376523 C43.1400549,11.1816302 43.2160838,11.1536195 43.3121217,11.1536195 L45.0167864,11.1536195 C45.096818,11.1536195 45.1648438,11.1816302 45.2208659,11.2376523 C45.276888,11.2936744 45.3048987,11.3617002 45.3048987,11.4417318 L45.3048987,11.7778629 C45.6410314,11.5857871 46.0011682,11.4337293 46.3853199,11.321685 C46.7694716,11.2096408 47.1696237,11.1536195 47.585788,11.1536195 C47.7778639,11.1696258 47.8739003,11.2816684 47.8739003,11.4897506 L47.8739003,13.1704059 C47.8418877,13.378488 47.7458512,13.4825276 47.585788,13.4825276 C47.2816679,13.4825276 46.9935585,13.5385488 46.721451,13.6505931 C46.4493436,13.7626373 46.2092523,13.9226981 46.0011702,14.1307803 C45.793088,14.3388625 45.6250241,14.5789537 45.4969736,14.8510612 C45.368923,15.1231686 45.3048987,15.4192811 45.3048987,15.7394075 L45.3048987,20.0851019 C45.3048987,20.2771778 45.2088622,20.3732143 45.0167864,20.3732143 L45.0167864,20.3732143 Z M57.0981636,18.9086432 C56.6659929,19.3728265 56.1577999,19.7409664 55.5735692,20.0130738 C54.9893384,20.2851813 54.3610998,20.421233 53.6888343,20.421233 C53.0485814,20.421233 52.4523549,20.3011874 51.9001369,20.0610926 C51.3479188,19.8209977 50.8637349,19.4888716 50.4475705,19.0647041 C50.0314062,18.6405366 49.7032815,18.1483496 49.4631867,17.5881283 C49.2230919,17.0279071 49.1030463,16.419676 49.1030463,15.7634169 C49.1030463,15.123164 49.2070858,14.5189345 49.415168,13.9507101 C49.6232501,13.3824857 49.9153611,12.8862972 50.2915097,12.4621297 C50.6676582,12.0379622 51.11983,11.705836 51.6480386,11.4657412 C52.1762472,11.2256464 52.7604691,11.1056008 53.400722,11.1056008 C54.3931138,11.1056008 55.2414361,11.3817057 55.9457143,11.9339238 C56.6499924,12.4861418 57.1461809,13.1944109 57.4342947,14.0587522 C57.5303326,14.3308597 57.6063615,14.6589843 57.6623836,15.043136 C57.7184057,15.4272877 57.7224072,15.9154732 57.6743883,16.5077071 C57.6743883,16.5877387 57.6463776,16.6557645 57.5903555,16.7117867 C57.5343334,16.7678088 57.4663075,16.7958194 57.3862759,16.7958194 L51.6240292,16.7958194 C51.8161051,17.1799711 52.09221,17.4920897 52.4523522,17.7321845 C52.8124944,17.9722793 53.224651,18.0923249 53.6888343,18.0923249 C54.2170429,18.0923249 54.6972253,17.9242611 55.129396,17.5881283 L55.4175083,17.300016 C55.5455589,17.1719654 55.6896136,17.1719654 55.8496768,17.300016 L57.0981636,18.4764747 C57.2102078,18.6045253 57.2102078,18.74858 57.0981636,18.9086432 L57.0981636,18.9086432 Z M53.400722,13.4104995 C52.952545,13.4104995 52.5764021,13.5265436 52.272282,13.7586352 C51.9681619,13.9907269 51.7440767,14.2908409 51.6000199,14.6589863 L55.1774147,14.6589863 C55.0333578,14.2908409 54.8052711,13.9907269 54.4931479,13.7586352 C54.1810246,13.5265436 53.8168863,13.4104995 53.400722,13.4104995 L53.400722,13.4104995 Z M61.5205546,24.5508431 L59.8158899,24.5508431 C59.6078077,24.5508431 59.5037682,24.4468036 59.5037682,24.2387214 L59.5037682,11.4417318 C59.5037682,11.3617002 59.5317789,11.2936744 59.587801,11.2376523 C59.6438231,11.1816302 59.719852,11.1536195 59.8158899,11.1536195 L61.5205546,11.1536195 C61.6005862,11.1536195 61.668612,11.1816302 61.7246341,11.2376523 C61.7806563,11.2936744 61.8086669,11.3617002 61.8086669,11.4417318 L61.8086669,11.7058348 C62.512945,11.3056768 63.2732339,11.1056008 64.0895562,11.1056008 C64.7298091,11.1056008 65.3300371,11.2256464 65.8902583,11.4657412 C66.4504796,11.705836 66.938665,12.0379622 67.3548294,12.4621297 C67.7709937,12.8862972 68.0991184,13.3824857 68.3392132,13.9507101 C68.579308,14.5189345 68.6993536,15.123164 68.6993536,15.7634169 C68.6993536,16.419676 68.579308,17.0279071 68.3392132,17.5881283 C68.0991184,18.1483496 67.7709937,18.6405366 67.3548294,19.0647041 C66.938665,19.4888716 66.4504796,19.8209977 65.8902583,20.0610926 C65.3300371,20.3011874 64.7298091,20.421233 64.0895562,20.421233 C63.2252149,20.421233 62.4649261,20.221157 61.8086669,19.8209989 L61.8086669,24.2387214 C61.8086669,24.4468036 61.7126304,24.5508431 61.5205546,24.5508431 L61.5205546,24.5508431 Z M61.8086669,15.7634169 C61.8086669,16.0835433 61.8686897,16.3836573 61.9887371,16.6637679 C62.1087845,16.9438786 62.2728469,17.1919728 62.480929,17.4080581 C62.6890112,17.6241435 62.9291024,17.7922073 63.2012099,17.9122547 C63.4733173,18.0323021 63.7694298,18.0923249 64.0895562,18.0923249 C64.4096827,18.0923249 64.7097967,18.0323021 64.9899073,17.9122547 C65.2700179,17.7922073 65.5181122,17.6241435 65.7341975,17.4080581 C65.9502828,17.1919728 66.1183467,16.9438786 66.2383941,16.6637679 C66.3584415,16.3836573 66.4184643,16.0835433 66.4184643,15.7634169 C66.4184643,15.4432905 66.3584415,15.1391749 66.2383941,14.8510612 C66.1183467,14.5629474 65.9502828,14.3108516 65.7341975,14.0947663 C65.5181122,13.8786809 65.2700179,13.7106171 64.9899073,13.5905697 C64.7097967,13.4705223 64.4096827,13.4104995 64.0895562,13.4104995 C63.7854361,13.4104995 63.4973267,13.4705223 63.2252192,13.5905697 C62.9531118,13.7106171 62.7130206,13.8706779 62.5049384,14.0707569 C62.2968562,14.2708359 62.1287924,14.5109271 62.0007418,14.7910378 C61.8726912,15.0711484 61.8086669,15.3632593 61.8086669,15.6673794 L61.8086669,15.7634169 Z M79.1000756,20.3732143 L77.3954109,20.3732143 C77.2033351,20.3732143 77.1072986,20.2771778 77.1072986,20.0851019 L77.1072986,19.8209989 C76.3870141,20.221157 75.6107192,20.421233 74.7783905,20.421233 C74.1381377,20.421233 73.5419112,20.3011874 72.9896931,20.0610926 C72.437475,19.8209977 71.9532911,19.4888716 71.5371267,19.0647041 C71.1209624,18.6405366 70.7928377,18.1483496 70.5527429,17.5881283 C70.3126481,17.0279071 70.1926025,16.419676 70.1926025,15.7634169 C70.1926025,15.123164 70.3126481,14.5189345 70.5527429,13.9507101 C70.7928377,13.3824857 71.1209624,12.8862972 71.5371267,12.4621297 C71.9532911,12.0379622 72.437475,11.705836 72.9896931,11.4657412 C73.5419112,11.2256464 74.1381377,11.1056008 74.7783905,11.1056008 C75.6267255,11.1056008 76.4030205,11.3216829 77.1072986,11.7538535 L77.1072986,11.4417318 C77.1072986,11.3617002 77.1313077,11.2936744 77.1793267,11.2376523 C77.2273456,11.1816302 77.299373,11.1536195 77.3954109,11.1536195 L79.1000756,11.1536195 C79.1801072,11.1536195 79.248133,11.1816302 79.3041551,11.2376523 C79.3601773,11.2936744 79.3881879,11.3617002 79.3881879,11.4417318 L79.3881879,20.0851019 C79.3881879,20.2771778 79.2921514,20.3732143 79.1000756,20.3732143 L79.1000756,20.3732143 Z M72.4975012,15.7634169 C72.4975012,16.4036697 72.7175848,16.951878 73.1577586,17.4080581 C73.5979325,17.8642383 74.1381377,18.0923249 74.7783905,18.0923249 C75.0825106,18.0923249 75.3706201,18.0323021 75.6427275,17.9122547 C75.914835,17.7922073 76.1589277,17.6321465 76.3750131,17.4320675 C76.5910984,17.2319885 76.7631638,16.9958988 76.8912143,16.7237913 C77.0192649,16.4516839 77.0912922,16.1635744 77.1072986,15.8594543 L77.1072986,15.7634169 C77.1072986,15.4432905 77.0472758,15.1391749 76.9272284,14.8510612 C76.807181,14.5629474 76.6391171,14.3108516 76.4230318,14.0947663 C76.2069464,13.8786809 75.9588522,13.7106171 75.6787416,13.5905697 C75.398631,13.4705223 75.0985169,13.4104995 74.7783905,13.4104995 C74.4582641,13.4104995 74.1581501,13.4705223 73.8780395,13.5905697 C73.5979289,13.7106171 73.3578376,13.8786809 73.1577586,14.0947663 C72.9576796,14.3108516 72.7976188,14.5629474 72.6775714,14.8510612 C72.557524,15.1391749 72.4975012,15.4432905 72.4975012,15.7634169 L72.4975012,15.7634169 Z M83.7625602,20.3732143 L82.0578955,20.3732143 C81.8658196,20.3732143 81.7697832,20.2771778 81.7697832,20.0851019 L81.7697832,11.4417318 C81.7697832,11.3617002 81.7977938,11.2936744 81.8538159,11.2376523 C81.9098381,11.1816302 81.9778639,11.1536195 82.0578955,11.1536195 L83.7625602,11.1536195 C83.8425918,11.1536195 83.9106176,11.1816302 83.9666397,11.2376523 C84.0226618,11.2936744 84.0506725,11.3617002 84.0506725,11.4417318 L84.0506725,20.0851019 C84.0506725,20.2771778 83.954636,20.3732143 83.7625602,20.3732143 L83.7625602,20.3732143 Z M83.7625602,10.1692357 L82.0578955,10.1692357 C81.8658196,10.1692357 81.7697832,10.0651962 81.7697832,9.857114 L81.7697832,8.27249615 C81.7697832,8.19246455 81.7977938,8.1244387 81.8538159,8.06841658 C81.9098381,8.01239446 81.9778639,7.98438381 82.0578955,7.98438381 L83.7625602,7.98438381 C83.8425918,7.98438381 83.9106176,8.01239446 83.9666397,8.06841658 C84.0226618,8.1244387 84.0506725,8.19246455 84.0506725,8.27249615 L84.0506725,9.857114 C84.0506725,10.0651962 83.954636,10.1692357 83.7625602,10.1692357 L83.7625602,10.1692357 Z M88.4490541,20.3732143 L86.7443895,20.3732143 C86.5363073,20.3732143 86.4322678,20.2771778 86.4322678,20.0851019 L86.4322678,11.4417318 C86.4322678,11.3617002 86.4602784,11.2936744 86.5163005,11.2376523 C86.5723226,11.1816302 86.6483515,11.1536195 86.7443895,11.1536195 L88.4490541,11.1536195 C88.5290857,11.1536195 88.5971116,11.1816302 88.6531337,11.2376523 C88.7091558,11.2936744 88.7371664,11.3617002 88.7371664,11.4417318 L88.7371664,11.7778629 C89.0732992,11.5857871 89.433436,11.4337293 89.8175877,11.321685 C90.2017394,11.2096408 90.6018914,11.1536195 91.0180558,11.1536195 C91.2101316,11.1696258 91.3061681,11.2816684 91.3061681,11.4897506 L91.3061681,13.1704059 C91.2741555,13.378488 91.178119,13.4825276 91.0180558,13.4825276 C90.7139357,13.4825276 90.4258262,13.5385488 90.1537188,13.6505931 C89.8816113,13.7626373 89.6415201,13.9226981 89.4334379,14.1307803 C89.2253557,14.3388625 89.0572919,14.5789537 88.9292413,14.8510612 C88.8011908,15.1231686 88.7371664,15.4192811 88.7371664,15.7394075 L88.7371664,20.0851019 C88.7371664,20.2771778 88.64113,20.3732143 88.4490541,20.3732143 L88.4490541,20.3732143 Z M95.4164374,20.3732143 L93.7117727,20.3732143 C93.5196969,20.3732143 93.4236604,20.2771778 93.4236604,20.0851019 L93.4236604,7.28811234 C93.4236604,7.20808073 93.451671,7.14005489 93.5076932,7.08403276 C93.5637153,7.02801064 93.6317411,7 93.7117727,7 L95.4164374,7 C95.496469,7 95.5644948,7.02801064 95.620517,7.08403276 C95.6765391,7.14005489 95.7045497,7.20808073 95.7045497,7.28811234 L95.7045497,20.0851019 C95.7045497,20.2771778 95.6085132,20.3732143 95.4164374,20.3732143 L95.4164374,20.3732143 Z M99.4786879,24.5508431 C99.2866121,24.5508431 99.2305908,24.4468036 99.3106224,24.2387214 L100.679156,20.0851019 L97.7980327,11.4417318 C97.76602,11.3617002 97.7860276,11.2936744 97.8580561,11.2376523 C97.9300845,11.1816302 98.0061134,11.1536195 98.086145,11.1536195 L99.9348658,11.1536195 C100.030904,11.1536195 100.09893,11.1816302 100.138945,11.2376523 C100.178961,11.2936744 100.214975,11.3617002 100.246988,11.4417318 L101.879624,16.435679 L103.560279,11.4417318 C103.592292,11.3617002 103.628306,11.2936744 103.668321,11.2376523 C103.708337,11.1816302 103.76836,11.1536195 103.848392,11.1536195 L105.697113,11.1536195 C105.777144,11.1536195 105.853173,11.1816302 105.925201,11.2376523 C105.99723,11.2936744 106.017238,11.3617002 105.985225,11.4417318 L101.735568,24.2387214 C101.703555,24.3347594 101.647534,24.4107882 101.567502,24.4668104 C101.487471,24.5228325 101.40744,24.5508431 101.327409,24.5508431 L99.4786879,24.5508431 Z" id="repairly" fill="#FFFFFF"></path>
                <g id="Group-3">
                    <rect id="Rectangle-2" fill="#FFFFFF" x="0" y="0" width="31" height="31"></rect>
                    <path d="M19.0806452,8.01623377 L19.0806452,13.9253247 L15.2096774,15.9707792 L10.9354839,13.9090909 L10.9354839,8 C8.58064516,9.3961039 7,11.9935065 7,14.9480519 C7,17.7077922 8.37096774,20.1266234 10.4677419,21.5876623 C11.7419355,22.4805195 13.3225806,23 15,23 C16.6774194,23 18.2419355,22.4642857 19.5322581,21.5876623 C21.6290323,20.1266234 23,17.7077922 23,14.9480519 C23,11.9935065 21.4354839,9.41233766 19.0806452,8.01623377 L19.0806452,8.01623377" id="Shape" fill="#FF0050"></path>
                </g>
            </g>
        </g>
    </g>
</svg>