<?xml version="1.0" encoding="UTF-8" standalone="no"?>
<svg width="140px" height="140px" viewBox="0 0 140 140" version="1.1" xmlns="http://www.w3.org/2000/svg" xmlns:xlink="http://www.w3.org/1999/xlink">
    <!-- Generator: sketchtool 41 (35326) - http://www.bohemiancoding.com/sketch -->
    <title>770111EC-8F4C-438F-8169-504ED30E95DC</title>
    <desc>Created with sketchtool.</desc>
    <defs></defs>
    <g id="Page-1" stroke="none" stroke-width="1" fill="none" fill-rule="evenodd">
        <g id="Artboard-Copy-16" transform="translate(-1151.000000, -946.000000)" fill="#FF0755">
            <g id="Group-24" transform="translate(1151.000000, 946.000000)">
                <path d="M74.1007273,93.4589091 L118.676727,138.027273 C118.676727,138.027273 124.11,143.464364 133.786545,133.790364 C143.464364,124.115091 138.026,118.678 138.026,118.678 L97.5010909,78.1530909 C90.4794545,80.0545455 84.9647273,82.1583636 82.9881818,84.14 L74.1007273,93.4589091 Z" id="Shape"></path>
                <path d="M63.9010909,54.334 L35.6541818,26.0921818 L30.2769091,13.5507273 L9.56709091,0 L0,9.56963636 L13.5469091,30.2794545 L26.0870909,35.6592727 L54.1329091,63.7038182 L60.3298182,58.7185455 C61.6152727,57.4038182 62.7887273,55.9172727 63.9010909,54.334 Z" id="Shape"></path>
                <path d="M139.165091,24.2798182 L112.352545,35.8972727 L107.148364,23.3061818 L107.719818,16.9896364 L130.119818,7.22272727 C130.119818,7.22272727 117.482909,-0.814545455 104.274545,2.05418182 C91.0661818,4.928 88.1923636,5.49690909 85.3249091,14.1221818 C82.4561818,22.7296364 78.4343636,49.7229091 64.6494545,63.5078182 L4.97763636,111.496 C4.97763636,111.496 -5.37218182,123.151636 4.98781818,133.509091 C15.3478182,143.869091 26.9983636,133.512909 26.9983636,133.512909 L78.4343636,79.5836364 C87.0494545,70.9685455 124.95,66.3727273 124.95,66.3727273 L118.636,51.0898182 C133.316909,43.8950909 139.165091,24.2798182 139.165091,24.2798182 Z M22.4,128.338 C19.0209091,131.720909 13.5329091,131.720909 10.1474545,128.338 C6.76836364,124.953818 6.76836364,119.473455 10.1525455,116.090545 C13.538,112.703818 19.0209091,112.703818 22.3987273,116.088 C25.7841818,119.470909 25.7841818,124.952545 22.4,128.338 Z" id="Shape"></path>
            </g>
        </g>
    </g>
</svg>